
<svg xmlns="http://www.w3.org/2000/svg" xmlns:xlink="http://www.w3.org/1999/xlink" width="2018pt" height="627pt" viewBox="0 0 2018 627" version="1.1">
<g id="surface1">
<path style="stroke:none;fill-rule:nonzero;fill:rgb(90.196078%,0%,7.058824%);fill-opacity:1" d="M 1126.410156 197.589844 C 1040.277344 197.589844 988.734375 250.8125 988.734375 316.65625 C 988.734375 382.5 1040.277344 435.722656 1126.410156 435.722656 C 1212.539062 435.722656 1264.203125 382.617188 1264.203125 316.65625 C 1264.203125 250.691406 1212.476562 197.589844 1126.410156 197.589844 M 1126.410156 409.882812 C 1085.160156 409.882812 1053.730469 368.210938 1053.730469 316.535156 C 1053.730469 264.863281 1085.160156 223.25 1126.410156 223.25 C 1167.65625 223.25 1199.085938 264.921875 1199.085938 316.535156 C 1199.085938 368.152344 1167.71875 409.882812 1126.410156 409.882812 "></path>
<path style="stroke:none;fill-rule:nonzero;fill:rgb(90.196078%,0%,7.058824%);fill-opacity:1" d="M 1275.8125 232.65625 L 1366.523438 232.65625 L 1366.523438 425.539062 L 1434.855469 425.539062 L 1434.855469 232.65625 L 1511.34375 232.65625 L 1511.34375 206.339844 L 1275.8125 206.339844 Z M 1275.8125 232.65625 "></path>
<path style="stroke:none;fill-rule:nonzero;fill:rgb(90.196078%,0%,7.058824%);fill-opacity:1" d="M 1536.339844 232.65625 L 1612.769531 232.65625 L 1612.769531 425.539062 L 1681.042969 425.539062 L 1681.042969 232.65625 L 1771.753906 232.65625 L 1771.753906 206.339844 L 1536.339844 206.339844 Z M 1536.339844 232.65625 "></path>
<path style="stroke:none;fill-rule:nonzero;fill:rgb(90.196078%,0%,7.058824%);fill-opacity:1" d="M 852.722656 386.25 L 852.722656 206.339844 L 787.246094 206.339844 L 787.246094 399.40625 C 787.230469 406.34375 789.980469 413 794.882812 417.902344 C 799.789062 422.808594 806.445312 425.558594 813.378906 425.539062 L 980.996094 425.539062 L 980.996094 399.285156 L 865.878906 399.285156 C 858.644531 399.320312 852.753906 393.484375 852.722656 386.25 "></path>
<path style="stroke:none;fill-rule:nonzero;fill:rgb(90.196078%,0%,7.058824%);fill-opacity:1" d="M 1887.644531 232.296875 L 2013.773438 232.296875 L 2013.773438 206.339844 L 1835.207031 206.339844 C 1828.28125 206.324219 1821.632812 209.066406 1816.730469 213.957031 C 1811.828125 218.847656 1809.074219 225.492188 1809.074219 232.417969 L 1809.074219 399.40625 C 1809.074219 413.839844 1820.773438 425.539062 1835.207031 425.539062 L 2013.773438 425.539062 L 2013.773438 399.585938 L 1887.644531 399.585938 C 1880.46875 399.585938 1874.640625 393.785156 1874.609375 386.605469 L 1874.609375 322.011719 L 2011.511719 322.011719 L 2011.511719 296.296875 L 1874.609375 296.296875 L 1874.609375 245.273438 C 1874.609375 241.824219 1875.984375 238.511719 1878.429688 236.078125 C 1880.878906 233.640625 1884.191406 232.28125 1887.644531 232.296875 "></path>
<path style="stroke:none;fill-rule:nonzero;fill:rgb(90.196078%,0%,7.058824%);fill-opacity:1" d="M 446.777344 573.597656 C 375.351562 644.5625 260.054688 644.5625 188.628906 573.597656 L 57.679688 442.625 C -13.332031 371.238281 -13.332031 255.882812 57.679688 184.492188 L 188.628906 53.519531 C 260.054688 -17.441406 375.351562 -17.441406 446.777344 53.519531 L 577.726562 184.492188 C 648.671875 255.910156 648.671875 371.210938 577.726562 442.625 Z M 446.777344 573.597656 "></path>
<path style="stroke:none;fill-rule:nonzero;fill:rgb(100%,100%,100%);fill-opacity:1" d="M 239.9375 506.148438 C 229.5 505.921875 221.191406 497.332031 221.308594 486.894531 C 221.421875 476.453125 229.914062 468.050781 240.351562 468.050781 C 250.792969 468.050781 259.285156 476.453125 259.398438 486.894531 C 259.511719 497.332031 251.207031 505.921875 240.769531 506.148438 L 239.9375 506.148438 "></path>
<path style="stroke:none;fill-rule:nonzero;fill:rgb(100%,100%,100%);fill-opacity:1" d="M 310.472656 148.117188 C 300.746094 147.757812 291.308594 151.445312 284.398438 158.296875 C 269.578125 173.121094 261.78125 203.601562 262.4375 244.203125 C 263.269531 294.332031 275.234375 392.558594 314.578125 443.164062 C 320.289062 450.691406 327.1875 457.246094 334.996094 462.570312 C 342.734375 468.40625 352.144531 471.597656 361.839844 471.679688 C 365.375 471.648438 368.898438 471.308594 372.375 470.667969 C 394.933594 465.25 423.207031 440.125 444.277344 406.667969 C 449.375 398.632812 459.988281 396.191406 468.085938 401.191406 C 472.003906 403.621094 474.773438 407.527344 475.765625 412.027344 C 476.816406 416.53125 476.023438 421.269531 473.5625 425.183594 C 446.957031 467.453125 411.839844 497.160156 379.578125 504.660156 L 378.804688 504.660156 C 373.109375 505.707031 367.332031 506.246094 361.542969 506.265625 C 345.085938 506.148438 329.066406 500.976562 315.648438 491.445312 C 304.683594 484.023438 294.996094 474.878906 286.960938 464.355469 C 231.542969 392.917969 227.734375 259.621094 227.4375 244.621094 C 226.839844 208.902344 231.960938 161.273438 259.699219 133.472656 C 273.015625 120.085938 291.238281 112.746094 310.113281 113.171875 L 313.328125 113.171875 C 332.214844 112.714844 350.460938 120.03125 363.804688 133.414062 C 391.539062 160.917969 396.660156 209.078125 396.066406 244.5625 C 395.46875 281.589844 388.683594 353.328125 350.292969 417.5625 C 345.113281 425.199219 334.875 427.457031 326.964844 422.710938 C 319.058594 417.964844 316.230469 407.867188 320.53125 399.703125 C 347.375 354.757812 360.410156 305.285156 361.421875 243.964844 C 362.078125 203.363281 354.28125 172.824219 339.398438 158.058594 C 332.539062 151.207031 323.136719 147.519531 313.445312 147.878906 Z M 310.472656 148.117188 "></path>
</g>
</svg>
