
<svg xmlns="http://www.w3.org/2000/svg" width="73.970001mm" height="22.360001mm" viewBox="0 0 73.970001 22.360001" version="1.1" id="svg170">
  <defs id="defs164"></defs>
  
  
  <g id="layer1">
    <path d="m 6.7105427,15.15826 c 0,-0.0843 -0.07444,-0.13723 -0.07444,-0.13723 C 5.9460697,14.48128 4.204053,13.66636 1.444978,12.59286 1.431218,12.58686 0,12.02136 0,10.50794 0,9.20055 2.542117,7.65185 7.7695777,5.77155 c 0.31115,-0.10442 0.601839,-0.15346 0.854075,-0.15346 0.9450913,0 1.1588753,0.70661 1.1588753,0.71473 0.0071,0.0194 0.227894,0.63218 -0.18027,1.21885 -0.37218,0.5341 -1.2957523,0.90699 -2.6962803,1.46649 L 3.991681,10.42363 c -0.346075,0.16898 -0.04692,0.35137 -0.04692,0.35137 3.6318467,1.18357 5.377745,2.58939 5.405261,4.29507 0.01376,1.40546 -0.7076723,2.17487 -0.7845773,2.22391 -0.08502,0.073 -0.223309,0.21625 -0.254706,0.24553 -0.313267,0.30233 -0.568678,0.49847 -0.86995,0.74789 -0.599722,0.50659 -1.124656,0.87136 -1.6637,1.17193 C 5.267678,19.73626 4.765322,19.88125 4.237214,20.03435 l -0.09913,0.0275 C 3.250847,20.31726 0.8001,20.4231 0.52317,19.19014 0.388056,18.57983 0.8382,18.30502 1.347611,18.13815 c 0.561623,-0.19438 1.088673,-0.38488 1.639006,-0.59266 0.26423,-0.0984 0.491772,-0.2279 0.728486,-0.32985 0.869597,-0.36301 1.255183,-0.57503 1.7914047,-0.96379 1.129595,-0.82691 1.204031,-1.09361 1.204031,-1.09361" style="fill:#ec6320;fill-opacity:1;fill-rule:nonzero;stroke:none;stroke-width:0.352778" id="path32"></path>
    <path d="m 12.100072,17.49041 h 0.148167 l 2.517422,-0.74612 v -0.14147 c -0.582789,-1.69404 -1.02235,-2.10397 -1.26612,-2.10397 h -0.02469 z m 6.687961,0.11747 c -0.02928,0.33973 -0.13335,0.68933 -0.719314,0.72673 l 0.418747,2.21227 c 0.0053,0.002 0.0053,0.008 0.0053,0.0155 v 0.39476 c 0,0.01 -0.0053,0.0173 -0.0053,0.0293 -0.08149,0.26705 -0.394405,0.48507 -0.959555,0.66957 -0.0049,0.008 -0.01588,0.008 -0.02575,0.008 h -0.0039 c -0.572205,-0.0215 -1.17475,-0.95426 -1.789994,-2.77777 -1.120069,0.1591 -1.931811,0.33584 -2.582686,0.56338 0,0 -1.832328,0.55951 -1.993547,0.62795 0,0 0.02399,0.20637 0.0032,0.33408 0,0.56162 -0.31997,0.8322 -0.973667,0.8322 H 9.739645 c -0.388056,0 -0.759883,-0.69497 -1.1024313,-2.07292 -0.0067,-0.012 -0.0085,-0.0236 0,-0.0314 C 8.6580237,18.96491 8.979762,18.6467 9.607,18.19127 h 0.0021 c 1.503539,-4.69159 2.85997,-7.07249 4.019197,-7.07249 h 0.137231 c 1.093611,0 2.121253,1.44074 3.336219,5.02108 l 0.365125,-0.10018 c 0.128411,-0.031 0.259292,-0.0448 0.384881,-0.0448 0.39758,0 0.804686,0.17463 0.804686,0.56515 0.117828,0.68333 0.131586,1.0481 0.131586,1.0481" style="fill:#ec6320;fill-opacity:1;fill-rule:nonzero;stroke:none;stroke-width:0.352778" id="path36"></path>
    <path d="m 40.074748,17.46476 h 0.14817 l 2.5273,-0.74401 v -0.14499 c -0.58879,-1.69192 -1.02376,-2.10044 -1.27388,-2.10044 h -0.0247 z m 6.69219,0.12382 c -0.0356,0.33585 -0.13758,0.68298 -0.71684,0.72038 l 0.4191,2.20839 c 0,0.008 0.005,0.0137 0.005,0.0176 v 0.39441 c 0,0.012 -0.005,0.0198 -0.007,0.0275 -0.0797,0.26917 -0.39476,0.48895 -0.95603,0.67169 -0.0138,0.006 -0.0247,0.008 -0.0314,0.008 -0.56832,-0.0198 -1.17722,-0.95215 -1.78717,-2.77778 -1.12677,0.16299 -1.93463,0.33373 -2.58868,0.56339 0,0 -1.82739,0.56162 -1.9872,0.63006 0,0 0.0173,0.20814 0,0.33796 0,0.55528 -0.32032,0.83009 -0.97578,0.83009 h -0.42016 c -0.38771,0 -0.76341,-0.70062 -1.1042,-2.07292 -0.002,-0.012 -0.005,-0.0236 -0.002,-0.0353 0.0226,-0.17075 0.34431,-0.49071 0.96873,-0.94827 1.51059,-4.69159 2.86314,-7.06861 4.02413,-7.06861 h 0.13723 c 1.09256,0 2.12126,1.4351 3.3334,5.01933 l 0.36301,-0.0981 c 0.13546,-0.0314 0.25929,-0.0473 0.39264,-0.0473 0.3937,0 0.80186,0.17286 0.80186,0.56727 0.11995,0.67733 0.13088,1.05233 0.13088,1.05233" style="fill:#ec6320;fill-opacity:1;fill-rule:nonzero;stroke:none;stroke-width:0.352778" id="path40"></path>
    <path d="m 22.244832,18.7174 c -0.263172,1.0481 -0.391583,1.42875 -0.837847,1.57198 H 20.95296 c -0.950736,0 -1.414992,-0.68474 -1.414992,-2.08633 v -0.34572 c 0,-3.5941 0.540456,-6.16374 1.854906,-8.8766 0.0099,-0.0254 0.02928,-0.0413 0.0568,-0.049 l 0.732367,-0.16687 h 0.02469 c 1.190625,0.0117 2.075744,1.80411 2.786592,5.6381 0,0 0.02434,0.10195 0.06456,0.10195 0.04515,0 0.07937,-0.061 0.09031,-0.10195 0.832203,-2.7425 1.751894,-4.07741 2.810933,-4.07741 1.521178,0 2.384778,2.00025 2.795411,6.48759 v 1.73743 c 0,0.5909 -0.150989,0.93627 -0.457552,1.03046 -0.0046,0.006 -0.01376,0.006 -0.0254,0.006 h -0.445912 c -0.769055,0 -1.242483,-0.69498 -1.408994,-2.06516 -0.308328,-2.09833 -0.563739,-3.11891 -0.773642,-3.11891 -0.873477,3.02471 -1.744133,4.49509 -2.649713,4.49509 -0.978959,0 -1.846439,-1.52753 -2.639484,-4.67395 0,0 -0.02258,-0.0843 -0.07973,-0.0843 -0.05856,0 -0.07832,0.0547 -0.07832,0.0843 l -0.156281,2.94252 0.160161,0.78705 c 0,0 0.155928,0.3122 0.04516,0.76376" style="fill:#ec6320;fill-opacity:1;fill-rule:nonzero;stroke:none;stroke-width:0.352778" id="path44"></path>
    <path d="m 54.327108,18.17772 h -0.16475 c -0.0138,0 -0.0293,-0.004 -0.0423,-0.0141 -0.77364,-0.42616 -2.24966,-2.0768 -4.4002,-4.89761 0.20038,0.26105 -0.0727,1.36983 -0.12841,1.69227 -0.0765,0.47696 -0.009,1.04387 -0.17568,1.51165 -0.12489,0.33938 -0.41522,1.02059 -0.82727,1.04387 -2.02706,0.11783 -1.4358,-2.88572 -1.22731,-3.97086 0.21696,-1.14477 0.375,-2.29694 0.52352,-3.45299 0.003,-0.0138 0.007,-0.0236 0.0116,-0.0353 0.38806,-0.69885 0.88124,-1.05234 1.45521,-1.05234 h 0.32703 c 0.0258,0 0.0522,0.01 0.0699,0.0374 l 4.20864,5.51603 v -1.28975 c 0,-4.73675 0.54363,-7.0411 1.65664,-7.0411 h 0.32491 c 0.0226,0 0.0522,0.0138 0.0677,0.0332 l 0.50059,0.5775 c 0.018,0.0155 0.0247,0.0388 0.0247,0.0607 v 5.72982 c 0,3.68617 -0.74613,5.55166 -2.20451,5.55166" style="fill:#ec6320;fill-opacity:1;fill-rule:nonzero;stroke:none;stroke-width:0.352778" id="path48"></path>
    <path d="m 59.688878,16.43846 c 0.66252,1.06186 1.78717,1.57586 3.3341,1.52118 l 0.95356,-0.0296 c 0.0205,-0.002 0.0409,0.002 0.054,0.012 l 0.46848,0.29033 0.16722,-0.008 0.60819,-1.49366 -0.15981,0.004 -2.25848,0.40993 c -0.0222,0.004 -0.0342,0 -0.054,-0.006 -0.47801,-0.19227 -0.74894,-0.39864 -0.80962,-0.61066 -0.007,-0.008 -0.007,-0.0138 -0.007,-0.0215 l -0.018,-0.61242 c 0,-0.0176 0.002,-0.0356 0.007,-0.0494 0.4953,-0.87524 2.23414,-1.36384 5.16396,-1.46403 0.0113,0 0.0205,0 0.0314,0.004 0.44838,0.12771 0.769053,0.37888 0.987073,0.75777 0.012,0.0155 0.0138,0.0293 0.0138,0.0413 l 0.0176,0.60643 c 0,0.0159 -0.004,0.0296 -0.008,0.0452 l -2.130073,4.64256 c 0.0243,0.59478 -0.0448,1.0541 -0.19615,1.35466 -0.15169,0.3101 -0.39193,0.46885 -0.72354,0.48084 l -0.46602,0.0138 h -0.003 c -0.0155,0 -0.0353,-0.002 -0.0473,-0.01 -0.54539,-0.31397 -0.81562,-0.72637 -0.83785,-1.27035 0,-0.004 0.002,-0.0116 0.002,-0.0173 l 0.27763,-1.62948 -2.10996,0.56939 c -0.005,0.002 -0.0155,0.002 -0.0208,0.002 -2.48991,0.0825 -4.12433,-1.13453 -4.85423,-3.6001 0,-0.006 0,-0.0138 -0.003,-0.0236 l -0.009,-0.15487 c -0.0744,-2.18088 1.72967,-4.33423 5.35093,-6.40151 0,0 0.79799,-0.4826 2.32234,-0.40816 0.58314,0.0233 1.12218,0.36124 1.62454,1.05621 0.22754,0.31398 0.0452,1.03047 0.0452,1.03047 -0.266,0.54151 -0.4505,0.77329 -1.02976,0.79692 -0.0138,0.002 -0.13159,0.0176 -0.14006,0.0176 l -1.13206,-0.22366 c 0,0 -0.12136,-0.0413 -0.3235,0.0374 -1.82562,0.72636 -3.15207,1.86443 -3.95393,3.34856 0,0 -0.31115,0.66358 -0.13335,0.99166" style="fill:#ec6320;fill-opacity:1;fill-rule:nonzero;stroke:none;stroke-width:0.352778" id="path52"></path>
    <path d="m 35.386158,22.08978 -0.46637,0.26494 c -0.0138,0.008 -0.0272,0.012 -0.0409,0.012 h -0.30128 c 0,0 -0.11818,-0.0198 -0.27799,-0.1083 l -0.48683,-0.41804 c -0.20708,-0.23178 -0.18944,-0.63006 -0.18944,-0.63006 l 0.0921,-2.9778 c -0.004,-0.51259 0.12207,-1.20156 0.12207,-1.20156 l 0.53198,-2.72839 -0.009,-0.004 C 30.853889,12.28421 29.440309,10.06242 29.440309,8.41741 v -0.0374 c 0,-0.0159 0.0071,-0.0314 0.01552,-0.0473 l 0.02293,-0.031 C 29.735934,7.86356 30.136337,7.64167 30.65739,7.64167 h 0.05221 c 0.02222,0 0.04304,0.0102 0.06068,0.0261 l 0.03563,0.0314 c 0.0028,0.001 0.0046,0.007 0.0078,0.007 l 3.808588,4.29718 0.32068,0.17498 c 0.0607,-0.22013 0.15981,-0.45579 0.25894,-0.70697 0.0649,-0.14146 0.12135,-0.29068 0.1778,-0.44379 0.0314,-0.30797 0.35383,-0.80857 0.39229,-0.87136 0.1397,-0.28893 0.28187,-0.6029 0.43991,-0.93627 0.49248,-1.0347 0.98037,-2.07892 1.4986,-3.10163 0.0903,-0.16898 0.1711,-0.34748 0.29563,-0.50059 0.13546,-0.16086 0.31997,-0.28857 0.48859,-0.41416 0.14923,-0.11006 0.27694,-0.23953 0.44168,-0.31997 0.15311,-0.0709 0.29563,-0.0667 0.45544,-0.061 0.23671,0.008 0.47307,0 0.70767,0 0.68298,0 1.13841,0.2279 1.35255,0.67557 0.006,0.008 0.0106,0.0134 0.0138,0.0194 l 0.004,0.0589 c 0,0.01 0.007,0.0138 0.007,0.0197 v 0.35701 c 0,0.0314 -0.0141,0.0628 -0.0473,0.0804 l -0.0677,0.0395 c -0.92357,0.53375 -2.85503,3.7726 -2.92594,4.33423 0,0.008 -0.002,0.0138 -0.002,0.0155 -1.47603,2.81093 -2.59927,7.53216 -2.85821,11.2522 0,0 -0.0434,0.25717 -0.18944,0.41416" style="fill:#ec6320;fill-opacity:1;fill-rule:nonzero;stroke:none;stroke-width:0.352778" id="path56"></path>
    <path d="m 68.198791,0 c -0.444503,0 -0.827623,0.12559 -0.827623,0.12559 -1.48978,0.45155 -2.59432,1.39382 -2.59432,1.39382 -0.98743,0.79516 -1.73108,1.7706 -2.08739,2.74814 -0.37394,1.00295 -0.31997,1.9237 0.16192,2.58939 0.43992,0.60819 1.19063,0.94403 2.12972,0.98919 1.03752,0.049 1.17017,-0.75177 1.17017,-0.75177 0.19826,-0.68333 -0.38453,-1.276 -1.73038,-1.76495 0,0 -0.3563,-0.11747 -0.3563,-0.50235 0,-0.11995 0.0557,-0.36125 0.28363,-0.47696 0.2226,-0.11183 0.4191,-0.0335 0.4191,-0.0335 1.14547,0.3944 2.04258,1.06997 2.52448,1.90817 l 0.23918,0.4124 V 2.98169 c 0,-0.36513 0.29951,-0.65934 0.667813,-0.65934 0.36019,0 0.65758,0.29421 0.65758,0.65934 v 3.65548 l 0.23918,-0.4124 c 0.48436,-0.8382 1.38113,-1.51377 2.5266,-1.90817 0,0 0.19649,-0.0783 0.42192,0.0335 0.22472,0.11571 0.28046,0.35701 0.28046,0.47696 0,0.38488 -0.35349,0.50235 -0.35349,0.50235 -1.35008,0.48895 -1.92899,1.08162 -1.73496,1.76495 0,0 0.13935,0.80081 1.17193,0.75177 0.93768,-0.0452 1.69227,-0.381 2.12619,-0.98919 0.48683,-0.66569 0.54469,-1.58644 0.17075,-2.58939 -0.37183,-0.97754 -1.10737,-1.95298 -2.09656,-2.74814 0,0 -1.09961,-0.94015 -2.58904,-1.3917 0,0 -0.40005,-0.12771 -0.82056,-0.12771" style="fill:#ec6320;fill-opacity:1;fill-rule:nonzero;stroke:none;stroke-width:0.352778" id="path60"></path>
  </g>
</svg>