
<svg xmlns="http://www.w3.org/2000/svg" width="920.77441pt" height="225pt" viewBox="0 0 920.77442 225" fill-rule="evenodd" version="1.1" id="svg708">
  
  <defs id="defs712"></defs>
  
  <g id="g2313" transform="matrix(1.3217373,0,0,1.3217373,189.69325,-830.34765)">
    <g id="g2208">
      <g id="g2155">
        <path style="color:#000000;font-style:normal;font-variant:normal;font-weight:normal;font-stretch:normal;font-size:medium;font-family:sans-serif;font-variant-ligatures:normal;font-variant-position:normal;font-variant-caps:normal;font-variant-numeric:normal;font-variant-alternates:normal;font-variant-east-asian:normal;font-feature-settings:normal;text-indent:0;text-decoration:none;text-decoration-line:none;text-decoration-style:solid;text-decoration-color:#000000;letter-spacing:normal;word-spacing:normal;text-transform:none;writing-mode:lr-tb;direction:ltr;text-orientation:mixed;dominant-baseline:auto;baseline-shift:baseline;text-anchor:start;clip-rule:nonzero;display:inline;overflow:visible;visibility:visible;color-interpolation:sRGB;vector-effect:none;fill:#ffffff;fill-opacity:1;fill-rule:nonzero;stroke:none;stroke-width:0.375;stroke-linecap:butt;stroke-linejoin:miter;stroke-miterlimit:4;stroke-dasharray:none;stroke-dashoffset:0;stroke-opacity:1;color-rendering:auto;image-rendering:auto;shape-rendering:auto;text-rendering:auto;enable-background:accumulate;stop-color:#000000" d="m 13.982422,782.28125 c 3.822541,0 6.921875,3.08028 6.921875,6.88477 0,3.8006 -3.099815,6.89648 -6.921875,6.89648 -3.831741,0 -6.935547,-3.09599 -6.935547,-6.89648 0,-3.80438 3.103326,-6.88477 6.935547,-6.88477 z" id="path1929"></path>
        <g id="g302" transform="matrix(3.7743448,0,0,3.7743448,-72.861237,-1690.5745)">
          <path style="fill:#ffffff;stroke:none" d="m 116.646,635.421 c 0,-5.623 -5.744,-10.2 -12.805,-10.2 -7.0617,0 -12.8054,4.577 -12.8054,10.2 0,4.207 3.1626,7.861 7.9522,9.413 0,0.875 0,1.57 0,2.647 -1.8828,0 -7.4307,0 -7.4307,0 v 5.748 l 24.6139,0.004 v -5.758 c 0,0 -5.621,0 -7.511,0 0,-1.071 0,-1.754 0,-2.628 4.81,-1.545 7.986,-5.203 7.986,-9.426 z m -9.275,-0.227 c 0,2.656 -1.611,4.819 -3.589,4.819 -1.983,0 -3.593,-2.163 -3.593,-4.819 0,-2.659 1.61,-4.819 3.593,-4.819 1.978,0 3.589,2.16 3.589,4.819 z" id="path294"></path>
          <path style="fill:#ffffff;stroke:none" d="m 142.072,640.311 h -0.526 v -4.024 c 0,0 -2.844,0 -4.031,0 0,-1.504 0,-3.41 0,-4.914 1.097,0 3.769,0 3.769,0 v -5.704 h -1.457 -10.126 v -0.008 h -1.456 l -10.955,0.005 0.005,12.958 0.006,0.066 c 0.009,0.593 0.192,1.14 0.479,1.621 h -0.887 v 5.83 c 0,0 5.554,0 7.436,0 0,1.517 0,3.721 0,3.726 -0.01,0.134 -0.019,0.273 -0.019,0.273 0,2.257 2.124,4.026 4.835,4.026 2.685,0 4.809,-1.754 4.83,-3.988 0,0 0.005,-2.46 0.006,-4.048 1.957,0 8.091,0 8.091,0 z m -15.549,-4.061 c 0,-1.494 0,-3.378 0,-4.874 0.405,0 1.136,0 1.794,0 v 4.874 c -0.667,0 -1.358,0 -1.794,0 z" id="path296"></path>
          <path style="fill:#ffffff;stroke:none" d="m 164.395,625.212 h -7.816 v 0.413 h -1.257 -13.599 v 5.829 c 0,0 4.439,-10e-4 6.137,-10e-4 0,2.408 0,13.393 0,13.393 -0.006,0.015 -0.163,1.636 -3.289,2.212 -2.118,0.312 -2.895,1.816 -2.895,3.118 0,1.77 1.283,3.11 2.982,3.11 0,0 -0.049,-0.053 -0.054,-0.056 0.151,0.02 0.255,0.073 0.438,0.073 1.059,0 3.791,-0.096 6.323,-1 3.405,-1.218 4.759,-3.246 5.214,-5.13 v 2.971 c 0,2.244 2.063,4.001 4.7,4.001 2.606,0 4.573,-1.72 4.573,-4.001 v -24.932 z" id="path298"></path>
          <path style="fill:#ffffff;stroke:none" d="m 85.1118,638.13 h -1.458 -4.4531 v 0.201 h -1.4561 -4.5219 l -0.0132,1.485 0.0029,7.141 c -0.0078,0.73 -0.2275,1.294 -0.4834,1.699 L 72.7241,638.13 h -5.5913 c 0,0 0,0.265 0,0.466 -0.0107,0 -0.0127,0 -0.0239,0 0,-0.41 0,-0.836 0,-0.836 h -1.4551 -4.3125 c 0,0 0,0.426 0,0.837 -0.2153,0 -0.9292,0 -1.5,0 v -0.482 h -1.4551 -4.4306 v 0.165 h -1.357 -4.5317 v 3.802 c 0,0.934 -0.3486,1.407 -0.6738,1.647 l -1.2818,-0.178 c -0.2964,-0.041 -1.1255,-0.368 -1.6748,-0.844 0.6675,0 2.815,0 2.815,0 v -4.42 H 45.7944 34.2729 v 4.42 c 0,0 2.1734,0 2.8819,0 -0.4199,0.386 -1.042,0.691 -1.5806,0.904 -0.9092,0.294 -1.4966,1.094 -1.5415,2.023 h -0.2739 v 2.901 c 0,1.485 0.8081,1.485 3.4844,1.485 0,0 0.3408,0 0.5732,0 0,0.784 0,1.654 0,1.654 l 0.0107,0.087 c 0.1705,1.513 1.6021,2.302 2.9258,2.302 1.3452,0 2.8081,-0.787 3.0054,-2.288 l 0.0117,-0.097 c 0,0 0,-0.884 0,-1.669 0.6182,0 1.6782,0 2.5615,0 v 0.269 c 0,0 5.7251,0 7.6333,0 0,0.577 0,1.237 0,1.237 l 0.0098,0.179 c 0.1328,1.473 1.6108,2.354 2.9614,2.354 0.8926,0 1.8594,-0.436 2.4244,-1.177 l 0.8354,10e-4 c 0,0 5.8818,0 7.4102,0 0.499,0.704 1.3437,1.176 2.3886,1.176 0.7735,0 1.4722,-0.298 1.9702,-0.771 0.3125,0.175 0.6661,0.288 1.045,0.288 l 0.4345,-0.046 c 0.8633,-0.155 1.8203,-0.74 2.7354,-1.478 1.5332,1.117 3.3203,1.457 3.5679,1.494 l 0.7221,0.108 c 0.5469,0.34 1.1724,0.523 1.7027,0.523 1.413,0 2.9394,-0.988 2.9394,-2.586 0,0 0,-2.467 0,-4.059 0.4263,0 1.0318,0 1.0318,0 v -4.573 c 0,0 -0.6055,0 -1.0318,0 0,-1.419 0,-4.818 0,-4.818 z" id="path300"></path>
        </g>
        <path style="fill:#2c2c2b;stroke:none;stroke-width:3.77434" d="m 203.3238,770.52477 c -0.009,0 -0.0204,0 -0.0204,0.004 -0.0257,0 -0.0532,0.008 -0.0793,0.0264 z" id="path304"></path>
        <path style="fill:#2c2c2b;stroke:none;stroke-width:3.77434" d="m 108.41035,750.18482 v 0 c -0.0275,0.0189 -0.0679,0.0189 -0.0955,0.0226 z" id="path306"></path>
        <g id="g336" transform="matrix(3.7743448,0,0,3.7743448,-72.861237,-1690.5745)">
          <path style="fill:#0b3f8c;stroke:none" d="m 115.191,635.421 c 0,-4.81 -5.081,-8.716 -11.35,-8.716 -6.2697,0 -11.3493,3.906 -11.3493,8.716 0,3.905 3.3413,7.209 7.9513,8.318 v 5.224 h -7.4293 v 2.779 l 21.7013,0.005 v -2.786 h -7.511 v -5.214 c 4.625,-1.1 7.987,-4.409 7.987,-8.326 z m -11.409,6.074 c -2.79,0 -5.0481,-2.822 -5.0481,-6.301 0,-3.48 2.2581,-6.306 5.0481,-6.306 2.786,0 5.045,2.826 5.045,6.306 0,3.479 -2.259,6.301 -5.045,6.301 z" id="path308"></path>
          <path style="fill:#0b3f8c;stroke:none" d="m 118.757,638.642 c 0,0.003 0,0.004 0,0.004 v 0.017 0 c 0.015,1 0.851,1.807 1.887,1.807 0.01,0 0.016,0 0.021,0 l 0.009,0.007 h 8.028 v -2.742 h -3.632 v -7.844 h 3.177 v -2.742 l -9.5,10e-4 0.001,11.462 c 0,0.012 0.009,0.019 0.009,0.03 z" id="path310"></path>
          <path style="fill:#0b3f8c;stroke:none" d="m 131.675,640.47 0.007,0.007 h 8.409 v -2.704 h -4.032 v -7.885 h 3.77 l -0.002,-2.735 h -10.054 v 11.51 l 0.026,0.027 c 0.027,0.984 0.855,1.773 1.876,1.78 z" id="path312"></path>
          <path style="fill:#0b3f8c;stroke:none" d="m 118.35,644.655 h 7.435 v 5.214 c -0.011,0.093 -0.018,0.183 -0.018,0.271 0,1.406 1.51,2.542 3.378,2.542 1.853,0 3.36,-1.126 3.375,-2.523 h 0.008 v -5.511 h 8.086 v -2.853 H 118.35 Z" id="path314"></path>
          <path style="fill:#0b3f8c;stroke:none" d="m 158.035,626.698 v 23.446 c 0,1.388 1.398,2.515 3.244,2.515 1.85,0 3.116,-1.127 3.116,-2.515 v -23.446 z" id="path316"></path>
          <path style="fill:#0b3f8c;stroke:none" d="m 143.178,629.972 6.134,-0.004 v 14.878 c 0,0 -0.004,2.849 -4.483,3.672 l 0.01,0.003 c -1.12,0.165 -1.706,0.742 -1.706,1.655 0,0.912 0.58,1.624 1.525,1.624 l 0.022,0.014 c -0.008,0 10.642,0.423 10.642,-6.34 v -18.366 h -12.144 z" id="path318"></path>
          <path style="fill:#0b3f8c;stroke:none" d="m 55.4126,646.676 h 2.9736 V 639.6 h -2.9736 z" id="path320"></path>
          <path style="fill:#0b3f8c;stroke:none" d="m 47.7876,648.796 h 7.6304 v 2.65 c 0,0.003 -0.0025,0.01 -0.0025,0.014 0,0.004 0.0025,0.011 0.0025,0.016 v 0.083 h 0.0068 c 0.0508,0.559 0.7925,1.003 1.5112,1.003 0.6802,0 1.399,-0.444 1.4473,-1.003 v -4.195 H 47.7876 Z" id="path322"></path>
          <path style="fill:#0b3f8c;stroke:none" d="m 83.6538,639.615 h -2.9961 v 11.955 c 0,0.656 0.9453,1.112 1.5147,1.112 0.5952,0 1.4814,-0.367 1.4814,-1.102 v -5.544 h 1.0342 v -1.602 h -1.0342 z" id="path324"></path>
          <path style="fill:#0b3f8c;stroke:none" d="m 35.2124,647.123 v 1.412 0 h 4.0601 v 3.054 c 0.0781,0.701 0.9174,0.989 1.4804,0.989 0.5576,0 1.4654,-0.263 1.5606,-0.998 v -3.055 h 4.063 V 647.12 H 35.2124 Z" id="path326"></path>
          <path style="fill:#0b3f8c;stroke:none" d="m 71.2705,639.612 h -2.6826 v 10.34 h -2.9268 v -1.28 c 1.3599,-0.585 2.312,-1.979 2.312,-3.605 0,-1.546 -0.8642,-2.884 -2.1123,-3.516 h 0.4239 1.6357 v -1.47 h -2.2666 v -0.837 h -2.8579 v 0.838 h -2.2656 v 1.469 h 1.625 0.4385 c -1.2525,0.632 -2.1148,1.97 -2.1148,3.516 0,1.631 0.9595,3.028 2.3247,3.61 v 1.275 h -2.6079 v 1.43 0.007 h 8.3921 v 0.189 c 0.0142,0.598 0.6582,0.984 1.4067,0.984 0.6294,0 1.2808,-0.4 1.2808,-1.01 0,-0.02 -0.0049,-0.045 -0.0049,-0.067 z m -7.0434,8.038 c -0.6875,0 -1.2447,-1.157 -1.2447,-2.583 0,-1.43 0.5572,-2.585 1.2447,-2.585 0.6855,0 1.2436,1.155 1.2436,2.585 0,1.426 -0.5581,2.583 -1.2436,2.583 z" id="path328"></path>
          <path style="fill:#0b3f8c;stroke:none" d="m 77.7563,646.957 v -7.141 h -0.0117 -3.0649 -0.0142 l 0.0025,7.141 -0.0166,0.003 c 0,2.057 -1.1944,3.301 -1.8555,3.7 v -0.005 c -0.29,0.094 -0.499,0.371 -0.499,0.696 0,0.401 0.3188,0.728 0.7129,0.728 0.0561,0 0.1074,-0.008 0.1591,-0.018 0.7588,-0.135 1.941,-0.754 3.0323,-1.947 v -10e-4 c 1.2842,1.584 3.7573,1.955 3.7573,1.955 v -1.425 c -0.4585,0 -2.2022,-1.187 -2.2022,-3.686 z" id="path330"></path>
          <path style="fill:#0b3f8c;stroke:none" d="m 48.0273,646.671 c 0.7832,-0.17 1.7051,-0.25 3.0269,-1.48 v -0.002 c 1.2866,1.581 3.7568,1.49 3.7568,1.49 v -1.422 c -0.4546,0 -2.2041,-0.682 -2.2041,-3.175 v -2.317 h -0.0083 -3.0781 v 2.317 0 c 0,2.05 -1.1953,2.908 -1.873,3.191 l 0.0029,-0.003 c -0.2896,0.095 -0.4985,0.37 -0.4985,0.696 0,0.401 0.3193,0.727 0.7128,0.727 0.0577,0 0.1119,-0.005 0.1626,-0.022 z" id="path332"></path>
          <path style="fill:#0b3f8c;stroke:none" d="m 36.1851,646.469 c 0,0 3.3164,-0.094 4.6088,-1.406 v -0.002 c 1.4551,1.482 5.2203,1.397 5.2203,1.397 v -1.429 c -0.4561,0 -3.5381,-0.9 -3.5381,-3.156 v -0.652 h 0.1855 3.1328 v -1.447 H 35.728 v 1.444 0.006 l 3.1343,-0.003 h 0.2192 v 0.652 0.002 c 0,2.053 -2.4296,2.894 -3.1113,3.173 v 0 c -0.2886,0.088 -0.498,0.367 -0.498,0.694 0,0.401 0.3178,0.727 0.7129,0.727 z" id="path334"></path>
        </g>
        <path style="fill:#ffffff;stroke:none;stroke-width:3.77434" d="m 24.755775,691.73155 c 0,0 -8.7595,-11.70802 -24.28639918,-14.36893 0,0 -4.26085782,-49.10045 -55.02088882,-49.1382 v 0 h -0.04265 -0.07549 -0.04416 v 0 c -50.756257,0.0302 -55.433797,49.34579 -55.433797,49.34579 -15.03661,2.45332 -23.52512,13.59519 -23.52512,13.59519 -16.25497,16.58447 -7.48075,41.97826 -7.48075,41.97826 10.24508,34.12763 35.01988,49.21746 35.01988,49.21746 19.901744,13.28191 39.245261,15.89376 51.478667,16.0938 v 0 c 0.01132,0 0.01849,0 0.01849,0 0.01095,0 0.02227,0 0.02227,0 v 0 c 12.242465,-0.20004 31.582207,-2.81189 51.4971604,-16.0938 0,0 24.7619666,-15.08983 35.0013866,-49.21746 0,0 8.188063,-24.26526 -7.128605,-41.41211 z" id="path338"></path>
        <path style="fill:#dc2c34;stroke:none;stroke-width:3.77434" d="m 20.787806,692.577 c 0,0 -8.694958,-10.60213 -23.7221343,-12.48553 0,0 -2.7828244,-48.50033 -51.6171847,-48.53053 v 0 h -0.04265 -0.07549 -0.04416 v 0 c -48.824917,0.0264 -51.615297,48.53053 -51.615297,48.53053 -15.02529,1.8834 -23.71873,12.48553 -23.71873,12.48553 -15.64089,15.91641 -7.82686,39.79669 -7.82686,39.79669 9.84877,32.79529 33.6781,47.30387 33.6781,47.30387 19.160833,12.73464 37.767221,15.25967 49.541667,15.43707 v 0 c 0.01132,0 0.01849,0 0.01849,0 0.01095,0 0.02227,0 0.02227,0 v 0 c 11.780107,-0.1774 30.401215,-2.70243 49.5473339,-15.43707 0,0 23.8236641,-14.50858 33.6871601,-47.30387 0,0 7.823461,-23.88028 -7.832521,-39.79669 z" id="path340"></path>
        <path style="fill:#ffffff;stroke:none;stroke-width:3.77434" d="m 14.595616,696.25699 c 0,0 -7.5192496,-8.40169 -24.271679,-10.08883 0,0 -0.90471,-48.14554 -44.938104,-48.16441 v 0 h -0.02227 -0.01849 v 0 c -44.046226,0.0189 -44.929046,48.16441 -44.929046,48.16441 -16.759607,1.68714 -24.302627,10.08883 -24.302627,10.08883 -14.21117,14.50103 -6.72324,35.1316 -6.72324,35.1316 9.10787,30.30421 30.99454,43.16341 30.99454,43.16341 17.668463,11.73443 34.392962,14.0934 44.960373,14.12737 v 0 h 0.01849 0.02227 v 0 c 10.565523,-0.034 27.303233,-2.39294 44.9603726,-14.12737 0,0 21.8885574,-12.8592 31.0017134,-43.16341 0,0 7.484526,-20.63057 -6.752303,-35.1316 z" id="path342"></path>
        <path style="fill:#dc2c34;stroke:none;stroke-width:3.77434" d="m 14.917945,714.73618 c 0,0 -3.254617,-17.88662 -21.2801333,-18.64904 H -21.458058 c 1.940768,-4.43863 2.611469,-8.062 2.558251,-14.58029 -0.127195,-19.30578 -15.718636,-34.37296 -35.557725,-34.37296 h -0.348372 c -19.857583,0 -35.543005,14.89734 -35.686807,34.18802 -0.05322,6.52584 0.829223,10.61345 2.908132,14.76523 h -16.007751 c -18.01457,1.16627 -20.58377,18.64904 -20.58377,18.64904 -1.52785,12.72332 2.94852,21.008 2.94852,21.008 0,0 11.3638,31.44407 47.494469,41.22717 0,0 7.819688,2.46465 19.096675,2.5741 11.278875,-0.10945 19.117057,-2.5741 19.117057,-2.5741 36.09745595,-9.7831 47.470312,-41.22717 47.470312,-41.22717 0,0 4.489583,-8.28468 2.967012,-21.008 z m -4.282749,20.57395 c 0,0 -11.13507193,30.8213 -46.541823,40.41191 0,0 -7.684944,2.41558 -18.729809,2.52127 -11.050149,-0.10569 -18.718863,-2.52127 -18.718863,-2.52127 -35.435811,-9.59061 -46.554281,-40.41191 -46.554281,-40.41191 0,0 -4.40277,-8.12994 -2.89718,-20.60037 0,0 3.17724,-16.86377 20.85099,-17.34689 h 16.365178 c -2.441624,-4.92552 -3.510518,-8.54134 -3.451639,-14.93131 0.138141,-18.92079 14.77656,-34.00307 34.236327,-34.00307 h 0.348372 c 19.452218,0 34.098186,15.08228 34.228778,34.00307 0.06077,6.38997 -1.013411,10.00579 -3.435031,14.93131 H -7.3076616 C 10.367972,697.84599 13.5505,714.70976 13.5505,714.70976 c 1.483695,12.47043 -2.915304,20.60037 -2.915304,20.60037 z" id="path344"></path>
        <path style="fill:#dc2c34;stroke:none;stroke-width:3.77434" d="m 7.5002253,707.3913 c -5.838534,-8.00161 -15.6925934,-7.8846 -15.6925934,-7.8846 H -32.631628 l -0.250617,0.50199 c -4.742086,6.97121 -12.690479,11.60233 -21.743245,11.7835 -9.05805,-0.18117 -17.00833,-4.81229 -21.757588,-11.7835 l -0.237784,-0.50199 h -24.461528 c 0,0 -9.8484,-0.11701 -15.64466,7.8846 0,0 -7.88574,8.11485 -0.97303,26.61291 0,0 10.24848,29.19456 44.866396,38.97766 0,0 7.356953,2.31745 18.01306,2.46087 v 0.004 c 0.04982,0 0.125309,-0.004 0.195134,-0.004 0.05548,0 0.132857,0.004 0.195511,0.004 v -0.004 c 10.628177,-0.14342 18.007399,-2.46087 18.007399,-2.46087 C -1.8122156,763.19877 8.4215429,734.00421 8.4215429,734.00421 15.349353,715.50615 7.5002253,707.3913 7.5002253,707.3913 Z" id="path346"></path>
        <path style="fill:#ffffff;stroke:none;stroke-width:3.77434" d="m -84.514149,739.3751 c 6.861381,-1.67203 11.817096,-6.70701 11.817096,-12.6516 0,-7.33733 -7.517363,-13.28569 -16.798476,-13.28569 -9.273943,0 -16.802251,5.94836 -16.802251,13.28569 0,5.92572 4.95949,10.96447 11.77822,12.64028 v 7.95632 h -10.99316 v 4.22349 l 32.118923,0.008 v -4.23104 h -11.120352 z m -5.06819,-3.40823 c -4.129888,0 -7.473203,-4.3103 -7.473203,-9.60193 0,-5.30673 3.343315,-9.61326 7.473203,-9.61326 4.124604,0 7.466031,4.30653 7.466031,9.61326 0,5.29163 -3.341427,9.60193 -7.466031,9.60193 z" id="path348"></path>
        <g id="g356" transform="matrix(3.7743448,0,0,3.7743448,-72.861237,-1690.5745)">
          <path style="fill:#ffffff;stroke:none" d="m 0.772,641.483 v 0.004 0.007 c 0.0053,0.403 0.3364,0.727 0.7402,0.727 0.0029,0 0.0049,0 0.0127,0 v 0.007 H 4.564 V 641.12 H 3.2471 v -2.895 H 4.564 v -1.109 H 0.7676 l 0.001,4.354 c 0,0.007 0.0034,0.013 0.0034,0.013 z" id="path350"></path>
          <path style="fill:#ffffff;stroke:none" d="m 5.9907,642.221 0.003,0.007 h 3.2954 v -1.097 H 7.709 v -2.913 h 1.5801 v -1.099 l -4.0464,-0.003 v 4.378 l 0.0117,0.01 c 0.0107,0.396 0.3345,0.712 0.7363,0.717 z" id="path352"></path>
          <path style="fill:#ffffff;stroke:none" d="M 9.3931,643.02 H 0.6626 v 1.158 h 2.9155 v 2.293 c -0.0039,0.03 -0.0039,0.072 -0.0039,0.104 0,0.567 0.5908,1.026 1.3228,1.026 0.73,0 1.3227,-0.455 1.3252,-1.017 h 0.0049 v -2.417 h 3.166 z" id="path354"></path>
        </g>
        <g id="g362" transform="matrix(3.7743448,0,0,3.7743448,-72.861237,-1690.5745)">
          <path style="fill:#ffffff;stroke:none" d="m 16.0249,636.934 v 9.454 c 0,0.56 0.5469,1.013 1.272,1.013 0.729,0 1.2207,-0.453 1.2207,-1.013 v -9.454 z" id="path358"></path>
          <path style="fill:#ffffff;stroke:none" d="m 10.2007,638.249 h 2.4038 v 6.002 c 0,0 0,1.15 -1.7568,1.482 h 0.0058 c -0.438,0.065 -0.6714,0.301 -0.6714,0.666 0,0.368 0.2276,0.659 0.5987,0.659 l 0.0078,0.007 c 0,0 4.1758,0.168 4.1758,-2.557 V 637.1 h -4.7637 z" id="path360"></path>
        </g>
        <g id="g382" transform="matrix(3.7743448,0,0,3.7743448,-72.861237,-1690.5745)">
          <path style="fill:#dc2c34;stroke:none" d="m 11.771,628.877 c 0,0 0.436,-2.589 -2.2603,-5.757 0,0 -2.7802,-4.165 -6.3559,-1.551 0,0 -1.6875,-1.28 -3.0518,0.095 0,0 -1.1416,0.618 -0.5176,2.513 0,0 -3.3349,3.831 -0.9433,7.229 0,0 0.9267,0.908 1.0049,1.744 0,0 0.8579,1.661 3.6162,2.563 0,0 4.4429,1.559 7.4648,-3.33 0,0 3.274,-1.09 1.043,-3.506 z m -1.1724,1.949 c -0.1567,-0.227 -0.6132,-0.185 -0.6132,-0.185 -0.6114,0.004 -0.4908,0.496 -0.4908,0.496 -0.0722,0.684 -1.0219,1.453 -1.0219,1.453 -0.3057,0.077 -0.1104,0.456 -0.1104,0.456 0.0806,0.382 -0.2275,0.573 -0.2275,0.573 -1.2119,1.3 -3.73,1.166 -3.73,1.166 -1.4151,0.127 -3.3023,-1.458 -3.3023,-1.458 -0.4609,-0.184 -0.3466,-0.565 -0.3466,-0.565 0.0351,-0.417 -0.2701,-0.569 -0.2701,-0.569 -1.5722,-1.206 -1.5151,-2.991 -1.5151,-2.991 -0.2041,-2.126 1.5747,-4.118 1.5747,-4.118 1.7227,0.214 2.5942,-0.439 2.5942,-0.439 2.4952,1.463 2.7881,-0.285 2.7881,-0.285 -1.2207,0.123 -0.6919,-0.566 -0.6919,-0.566 0.2979,-0.419 1.0318,-0.272 1.0318,-0.272 3.7856,0.621 2.5801,3.136 2.5801,3.136 1.1552,0.635 0.6201,1.173 0.6201,1.173 -1.5303,-0.415 -0.3765,1.144 -0.3765,1.144 0.5025,0.038 0.7402,1.023 0.7402,1.023 -0.0356,0.797 0.7671,0.217 0.7671,0.217 0.6392,-0.799 0.7574,0.185 0.7574,0.185 -0.0645,0.915 -0.7574,0.426 -0.7574,0.426 z" id="path364"></path>
          <path style="fill:#dc2c34;stroke:none" d="m 0.478,626.224 c 0,0 1.1773,-0.69 1.6455,-0.086 0,0 0.3448,0.222 0.2598,-0.347 0,0 -0.6147,-1.25 -2.02,0.131 0,0 -0.7202,0.766 0.1147,0.302 z" id="path366"></path>
          <path style="fill:#dc2c34;stroke:none" d="m 7.0376,624.715 -0.9287,0.403 c -0.624,0.309 -0.2583,0.737 -0.2583,0.737 0.5215,0.518 0.9482,0.095 0.9482,0.095 0.689,-0.773 1.4463,-0.406 1.4463,-0.406 -0.2192,-1.455 -1.2075,-0.829 -1.2075,-0.829 z" id="path368"></path>
          <path style="fill:#dc2c34;stroke:none" d="m 5.4111,629.107 c 0.5337,-0.004 0.961,-0.436 0.9561,-0.968 -0.0029,-0.53 -0.4395,-0.954 -0.9722,-0.952 -0.5327,0.003 -0.9634,0.435 -0.9604,0.962 0.0024,0.537 0.4414,0.965 0.9765,0.958 z" id="path370"></path>
          <path style="fill:#dc2c34;stroke:none" d="m 2.5518,627.883 c 0,0 -0.8389,0.199 0.1167,0.758 0,0 0.8877,0.488 0.8837,-0.043 0,0 -0.6103,0.079 -0.1201,-0.683 0,0 0.0327,-0.954 -0.6548,-1.024 0,0 0.5762,0.986 -0.2255,0.992 z" id="path372"></path>
          <path style="fill:#dc2c34;stroke:none" d="m 1.751,627.735 c 0,0 0.8384,-0.197 -0.0781,-0.228 0,0 -0.878,0.123 -1.2271,-0.562 0,0 -0.731,-0.677 -0.3018,0.154 0,0 0.3116,1.062 1.607,0.636 z" id="path374"></path>
          <path style="fill:#dc2c34;stroke:none" d="m 7.2729,630.621 -0.6074,0.387 c 0,0 -0.5322,0.233 -0.3491,-0.379 0,0 0.1069,-1.559 -0.8823,-0.904 0,0 -0.6821,0.726 -1.1836,0.881 0,0 -0.9082,0.504 -1.8672,-0.175 0,0 -1.0039,-1.094 -1.5767,-1.014 0,0 -0.8422,-0.26 -0.1123,0.229 0,0 0.6138,0.032 0.8814,0.411 0,0 0.54,0.602 0.9604,0.789 0,0 0.6187,0.68 1.9903,0.669 0,0 1.8759,0.217 2.9785,-0.744 0,0 0.4145,-0.571 -0.232,-0.15 z m -2.1972,0.429 -0.4595,-0.077 c 0,0 0.6836,-0.227 0.9155,-0.531 0,0 -0.1499,0.531 -0.456,0.608 z" id="path376"></path>
          <path style="fill:#dc2c34;stroke:none" d="m 8.0918,630.057 c 0,0 -0.4453,-0.196 -0.1035,0.236 0,0 0.1929,0.145 0.1929,0.352 0,0 0.1411,-0.116 0.0639,-0.39 0,0 -0.0781,-0.162 -0.1533,-0.198 z" id="path378"></path>
          <path style="fill:#dc2c34;stroke:none" d="M 3.3921,633.066 C 3.2217,632.95 2.9756,633.2 2.9756,633.2 2.46,633.377 1.9033,633.04 1.9033,633.04 1.522,633.014 1.376,632.772 1.3281,632.659 1.3252,632.45 1.2104,632.358 1.2104,632.358 c -0.3632,-0.416 -0.3408,0.079 -0.3408,0.079 0.1504,0.149 0.1504,0.301 0.1504,0.301 -0.0327,0.21 0.1988,0.402 0.1988,0.402 1.2021,0.914 1.3808,0.58 1.3808,0.58 0.0689,-0.019 0.3594,-0.139 0.3594,-0.139 0.0044,-0.035 0.3789,-0.328 0.3789,-0.328 0.479,-0.246 0.0542,-0.187 0.0542,-0.187 z" id="path380"></path>
        </g>
        <path style="color:#000000;font-style:normal;font-variant:normal;font-weight:normal;font-stretch:normal;font-size:medium;font-family:sans-serif;font-variant-ligatures:normal;font-variant-position:normal;font-variant-caps:normal;font-variant-numeric:normal;font-variant-alternates:normal;font-variant-east-asian:normal;font-feature-settings:normal;text-indent:0;text-decoration:none;text-decoration-line:none;text-decoration-style:solid;text-decoration-color:#000000;letter-spacing:normal;word-spacing:normal;text-transform:none;writing-mode:lr-tb;direction:ltr;text-orientation:mixed;dominant-baseline:auto;baseline-shift:baseline;text-anchor:start;clip-rule:nonzero;display:inline;overflow:visible;visibility:visible;color-interpolation:sRGB;vector-effect:none;fill:#dc2c34;fill-opacity:1;fill-rule:nonzero;stroke:none;stroke-width:0.375;stroke-linecap:butt;stroke-linejoin:miter;stroke-miterlimit:4;stroke-dasharray:none;stroke-dashoffset:0;stroke-opacity:1;color-rendering:auto;image-rendering:auto;shape-rendering:auto;text-rendering:auto;enable-background:accumulate;stop-color:#000000" d="m 13.981908,782.09314 c -3.932868,0 -7.1229439,3.16667 -7.1229439,7.07312 0,3.90267 3.1900759,7.08444 7.1229439,7.08444 3.923431,0 7.11011,-3.18177 7.11011,-7.08444 0,-3.90645 -3.186679,-7.07312 -7.11011,-7.07312 z m 0,12.88938 c -3.239898,0 -5.8532543,-2.5892 -5.8532543,-5.81626 0,-3.20819 2.6133563,-5.82381 5.8532543,-5.82381 3.230461,0 5.851366,2.61562 5.851366,5.82381 0,3.22706 -2.620905,5.81626 -5.851366,5.81626 z" id="path1921"></path>
        <path style="color:#000000;font-style:normal;font-variant:normal;font-weight:normal;font-stretch:normal;font-size:medium;font-family:sans-serif;font-variant-ligatures:normal;font-variant-position:normal;font-variant-caps:normal;font-variant-numeric:normal;font-variant-alternates:normal;font-variant-east-asian:normal;font-feature-settings:normal;text-indent:0;text-decoration:none;text-decoration-line:none;text-decoration-style:solid;text-decoration-color:#000000;letter-spacing:normal;word-spacing:normal;text-transform:none;writing-mode:lr-tb;direction:ltr;text-orientation:mixed;dominant-baseline:auto;baseline-shift:baseline;text-anchor:start;clip-rule:nonzero;display:inline;overflow:visible;visibility:visible;color-interpolation:sRGB;vector-effect:none;fill:#ffffff;fill-opacity:1;fill-rule:nonzero;stroke:none;stroke-width:0.375;stroke-linecap:butt;stroke-linejoin:miter;stroke-miterlimit:4;stroke-dasharray:none;stroke-dashoffset:0;stroke-opacity:1;color-rendering:auto;image-rendering:auto;shape-rendering:auto;text-rendering:auto;enable-background:accumulate;stop-color:#000000" d="m 13.982422,783.5293 c 3.129252,0 5.664062,2.53064 5.664062,5.63672 0,3.12554 -2.533788,5.6289 -5.664062,5.6289 -3.140003,0 -5.6660158,-2.50307 -5.6660158,-5.6289 0,-3.10637 2.5270318,-5.63672 5.6660158,-5.63672 z" id="path1933"></path>
        <path style="color:#000000;font-style:normal;font-variant:normal;font-weight:normal;font-stretch:normal;font-size:medium;font-family:sans-serif;font-variant-ligatures:normal;font-variant-position:normal;font-variant-caps:normal;font-variant-numeric:normal;font-variant-alternates:normal;font-variant-east-asian:normal;font-feature-settings:normal;text-indent:0;text-decoration:none;text-decoration-line:none;text-decoration-style:solid;text-decoration-color:#000000;letter-spacing:normal;word-spacing:normal;text-transform:none;writing-mode:lr-tb;direction:ltr;text-orientation:mixed;dominant-baseline:auto;baseline-shift:baseline;text-anchor:start;clip-rule:nonzero;display:inline;overflow:visible;visibility:visible;color-interpolation:sRGB;vector-effect:none;fill:#ffffff;fill-opacity:1;fill-rule:nonzero;stroke:none;stroke-width:0.375;stroke-linecap:butt;stroke-linejoin:miter;stroke-miterlimit:4;stroke-dasharray:none;stroke-dashoffset:0;stroke-opacity:1;color-rendering:auto;image-rendering:auto;shape-rendering:auto;text-rendering:auto;enable-background:accumulate;stop-color:#000000" d="m 13.982422,783.1543 c -3.340813,0 -6.0410158,2.7017 -6.0410158,6.01172 0,3.32828 2.7012228,6.0039 6.0410158,6.0039 3.330648,0 6.039062,-2.67532 6.039062,-6.0039 0,-3.31031 -2.707392,-6.01172 -6.039062,-6.01172 z" id="path1931"></path>
        <path style="color:#000000;font-style:normal;font-variant:normal;font-weight:normal;font-stretch:normal;font-size:medium;font-family:sans-serif;font-variant-ligatures:normal;font-variant-position:normal;font-variant-caps:normal;font-variant-numeric:normal;font-variant-alternates:normal;font-variant-east-asian:normal;font-feature-settings:normal;text-indent:0;text-decoration:none;text-decoration-line:none;text-decoration-style:solid;text-decoration-color:#000000;letter-spacing:normal;word-spacing:normal;text-transform:none;writing-mode:lr-tb;direction:ltr;text-orientation:mixed;dominant-baseline:auto;baseline-shift:baseline;text-anchor:start;clip-rule:nonzero;display:inline;overflow:visible;visibility:visible;color-interpolation:sRGB;vector-effect:none;fill:#dc2c34;fill-opacity:1;fill-rule:nonzero;stroke:none;stroke-width:0.375;stroke-linecap:butt;stroke-linejoin:miter;stroke-miterlimit:4;stroke-dasharray:none;stroke-dashoffset:0;stroke-opacity:1;color-rendering:auto;image-rendering:auto;shape-rendering:auto;text-rendering:auto;enable-background:accumulate;stop-color:#000000" d="m 17.278798,792.40842 -0.06643,-1.55125 c -0.04756,-1.20402 -0.508404,-1.41916 -0.982084,-1.6192 0.51784,-0.31327 1.131548,-0.78506 1.131548,-2.04947 0,-1.82678 -1.328946,-2.32499 -2.666574,-2.32499 h -3.744905 v 8.60928 h 1.107393 v -3.68376 h 2.637512 c 1.317624,0 1.448216,0.81903 1.448216,1.52483 0,0.31705 0.02982,1.62674 0.204569,2.15893 h 1.332722 v -0.19249 c -0.339314,-0.21514 -0.390645,-0.39254 -0.401968,-0.87188 z m -2.688843,-3.6196 h -2.532208 v -2.91756 h 2.716773 c 0.54728,0 1.455765,0.10568 1.455765,1.4267 0,1.27573 -0.845831,1.49086 -1.64033,1.49086 z" id="path1937"></path>
      </g>
    </g>
  </g>
</svg>
