
<svg xmlns="http://www.w3.org/2000/svg" width="34.970001mm" height="52.32mm" viewBox="0 0 34.970001 52.319998" version="1.1" id="svg8">
  <defs id="defs2">
    <clipPath clipPathUnits="userSpaceOnUse" id="clipPath26">
      <path d="M 0,737.01 H 510.24 V 0 H 0 Z" id="path24"></path>
    </clipPath>
    <clipPath clipPathUnits="userSpaceOnUse" id="clipPath42">
      <path d="m 277.994,416.373 h 0.039 c 1.673,-9.248 3.527,-20.479 -1.62,-28.717 v 0 c -3.268,-5.224 -8.488,-10.015 -19.421,-11.973 v 0 l 0.014,-28.891 c 29.1,0.201 49.576,19.083 49.576,48.596 v 0 c 0,14.699 -5.339,27.183 -13.906,35.652 v 0 z" id="path40"></path>
    </clipPath>
    <linearGradient x1="0" y1="0" x2="1" y2="0" gradientUnits="userSpaceOnUse" gradientTransform="matrix(-11.100189,-62.95227,62.95227,-11.100189,290.00879,434.94678)" spreadMethod="pad" id="linearGradient56">
      <stop style="stop-opacity:1;stop-color:#fff200" offset="0" id="stop48"></stop>
      <stop style="stop-opacity:1;stop-color:#fff200" offset="0.153793" id="stop50"></stop>
      <stop style="stop-opacity:1;stop-color:#fff200" offset="0.27014628" id="stop52"></stop>
      <stop style="stop-opacity:1;stop-color:#00acd4" offset="1" id="stop54"></stop>
    </linearGradient>
  </defs>
  
  
  <g id="layer1">
    <g id="g20" transform="matrix(0.35277777,0,0,-0.35277777,-73.192356,156.69143)">
      <g id="g22" clip-path="url(#clipPath26)">
        <g id="g28" transform="translate(287.998,299.875)">
          <path d="M 0,0 V 5.879 H -3.07 V -2.874 H 9.743 V 0 Z m -7.538,1.598 c 2.375,4.012 4.333,8.293 5.844,12.782 h -12.369 v -2.849 h 7.995 C -7.017,8.917 -8.752,5.462 -11.137,1.598 Z m -49.021,-2.644 c -2.541,0 -4.287,1.649 -4.287,4.183 0,2.537 1.746,4.171 4.287,4.171 2.542,0 4.278,-1.634 4.278,-4.171 0,-2.534 -1.736,-4.183 -4.278,-4.183 m 0,11.24 c -4.377,0 -7.381,-2.776 -7.381,-7.057 0,-4.283 3.004,-7.04 7.381,-7.04 4.381,0 7.376,2.757 7.376,7.04 0,4.281 -2.995,7.057 -7.376,7.057 M 0.483,11.531 H 6.441 V 5.739 H 9.495 V 28.373 H 6.441 V 14.39 H 0.483 Z M -23.115,3.137 c 0,-2.534 -1.742,-4.183 -4.291,-4.183 -2.538,0 -4.281,1.649 -4.281,4.183 0,2.537 1.743,4.171 4.281,4.171 2.549,0 4.291,-1.634 4.291,-4.171 m -11.667,0 c 0,-4.283 2.995,-7.04 7.376,-7.04 4.377,0 7.386,2.757 7.386,7.04 0,4.281 -3.009,7.057 -7.386,7.057 -4.381,0 -7.376,-2.776 -7.376,-7.057 m -4.647,10.249 c 1.753,2.858 3.236,5.929 4.495,9.108 1.262,-3.179 2.743,-6.25 4.496,-9.108 h 3.541 c -2.148,3.392 -3.957,7.003 -5.44,10.774 h 4.642 v 2.83 h -14.95 v -2.83 h 5.122 c -1.484,-3.771 -3.296,-7.382 -5.443,-10.774 z m 16.964,-2.059 h 3.056 v 17.046 h -3.056 v -6.991 h -4.676 v -2.864 h 4.676 z m 16.922,14.801 c 2.126,0 3.575,-1.369 3.575,-3.484 0,-2.113 -1.449,-3.476 -3.575,-3.476 -2.116,0 -3.561,1.363 -3.561,3.476 0,2.115 1.445,3.484 3.561,3.484 m 0,-9.722 c 3.876,0 6.545,2.438 6.545,6.238 0,3.805 -2.669,6.249 -6.545,6.249 -3.876,0 -6.548,-2.444 -6.548,-6.249 0,-3.8 2.672,-6.238 6.548,-6.238 m -46.013,-5.079 h 3.04 v 17.046 h -3.04 v -6.991 h -4.68 v -2.864 h 4.68 z m -16.641,2.059 c 1.539,2.5 2.86,5.153 4.011,7.902 1.152,-2.749 2.479,-5.403 4.011,-7.902 h 3.492 c -1.905,3.011 -3.558,6.195 -4.937,9.508 h 4.878 v 2.873 h -5.881 v 3.512 h -3.168 v -3.512 h -5.892 v -2.873 h 4.938 c -1.382,-3.313 -3.039,-6.497 -4.938,-9.508 z" style="fill:#231916;fill-opacity:1;fill-rule:nonzero;stroke:none" id="path30"></path>
        </g>
        <g id="g32" transform="translate(258.1094,347.2207)">
          <path d="m 0,0 v 27.912 l -1.116,0.551 c -7.867,-1.321 -16.045,-0.308 -19.019,0.599 -4.449,8.386 -7.848,23.649 2.614,32.241 10.888,8.941 26.733,7.941 37.445,7.851 L 34.566,83.819 C 25.84,92.46 13.74,96.944 -1.082,96.944 c -29.357,0 -49.553,-19.097 -49.553,-48.777 0,-29.667 20.176,-48.603 49.531,-48.603 0.135,0 -0.207,0 0,0 z" style="fill:#00acd4;fill-opacity:1;fill-rule:nonzero;stroke:none" id="path34"></path>
        </g>
      </g>
    </g>
    <g id="g36" transform="matrix(0.35277777,0,0,-0.35277777,-73.192356,156.69143)">
      <g id="g38" clip-path="url(#clipPath42)">
        <g id="g44">
          <g id="g46">
            <path d="m 277.994,416.373 h 0.039 c 1.673,-9.248 3.527,-20.479 -1.62,-28.717 v 0 c -3.268,-5.224 -8.488,-10.015 -19.421,-11.973 v 0 l 0.014,-28.891 c 29.1,0.201 49.576,19.083 49.576,48.596 v 0 c 0,14.699 -5.339,27.183 -13.906,35.652 v 0 z" style="fill:url(#linearGradient56);stroke:none" id="path58"></path>
          </g>
        </g>
      </g>
    </g>
  </g>
</svg>
