
<svg xmlns="http://www.w3.org/2000/svg" width="1180.7028mm" height="400mm" viewBox="0 0 1180.7028 400" version="1.1" id="svg8">
  <defs id="defs2">
    <clipPath clipPathUnits="userSpaceOnUse" id="clipPath26">
      <path d="M 0,595.28 H 841.89 V 0 H 0 Z" id="path24"></path>
    </clipPath>
  </defs>
  
  
  <g id="layer1" transform="translate(514.10471,69.854368)">
    <g id="g22" clip-path="url(#clipPath26)" transform="matrix(2.2754168,0,0,-2.2754168,-881.49994,808.21014)">
      <g id="g28" transform="translate(491.0811,228.8145)">
        <path d="m 0,0 c -0.77,9.156 3.934,26.061 16.041,27.148 0.246,0.023 0.476,0.025 0.711,0.033 7.077,-0.234 8.705,-6.715 9.032,-10.615 C 26.536,7.611 21.715,-9.652 9.827,-10.719 9.602,-10.739 9.389,-10.74 9.17,-10.749 1.709,-10.507 0.268,-3.187 0,0 m 17.355,35.203 c -4.532,0 -8.053,-0.625 -11.31,-1.908 -12.506,-4.998 -18.726,-20.367 -18.229,-32.291 0.506,-12.16 8.272,-19.517 20.786,-19.715 7.734,-0.123 14.757,2.785 19.832,8.051 6.243,6.484 9.873,16.476 9.472,26.078 -0.515,12.389 -8.278,19.785 -20.551,19.785" style="fill:#231f20;fill-opacity:1;fill-rule:nonzero;stroke:none" id="path30"></path>
      </g>
      <g id="g32" transform="translate(606.4004,238.2363)">
        <path d="m 0,0 c 1.781,7.783 6.745,12.761 8.665,14.1 2.93,2.042 9.513,5.149 13.553,2.072 0.995,-0.758 1.602,-2.393 1.484,-3.926 C 23.467,9.248 20.95,6.191 16.794,3.855 11.007,0.604 5.011,-0.011 1.467,-0.052 0.878,-0.044 0.376,-0.022 0,0 m 28.926,23.258 c -2.28,1.4 -5.306,2.291 -8.524,2.506 -0.663,0.044 -1.333,0.05 -2.006,0.04 C 14.73,25.874 10.897,25.142 7.062,23.6 -4.177,19.078 -11.892,7.727 -12.593,-5.318 c -0.352,-6.577 1.438,-12.293 5.183,-16.534 3.407,-3.861 8.339,-5.677 13.501,-6.078 0,0 0.986,-0.093 2.555,-0.075 3.344,-0.045 10.947,0.375 16.349,4.657 2.793,2.213 3.62,7.231 1.398,10.045 0,0 -0.019,-0.018 -0.025,-0.022 -0.005,0.007 -0.009,0.015 -0.014,0.022 0,0 -7.044,-5.719 -15.017,-6.073 -0.951,0.016 -1.924,0.082 -2.932,0.263 -8.502,1.52 -9.197,9.647 -9.198,11.86 0.542,-0.007 1.083,-0.013 1.619,-0.006 11.419,-0.019 21.623,3.03 27.33,8.157 3.661,3.288 5.855,6.299 6.225,11.971 0.464,7.113 -5.43,10.377 -5.455,10.389" style="fill:#231f20;fill-opacity:1;fill-rule:nonzero;stroke:none" id="path34"></path>
      </g>
      <g id="g36" transform="translate(209.0713,254.8613)">
        <path d="m 0,0 c 0.021,-0.009 5.323,30.275 5.323,30.275 0,0 2.122,0.562 6.017,0.599 0.621,-0.007 1.279,-0.026 1.976,-0.063 C 21.051,30.4 29.398,26.848 26.891,14.91 25.844,9.922 22.208,5.021 17.945,2.551 11.729,-1.051 2.313,-0.301 0,0 m 13.451,39.41 c -0.748,0.008 -1.475,0.008 -2.185,0.003 C 0.641,39.407 -5.881,37.994 -5.881,37.994 L -20.138,-43.01 h 7.112 c 3.412,0 5.75,1.608 6.464,5.664 0.548,3.125 4.673,26.607 4.937,28.113 C 1.254,-9.397 3.898,-9.49 6.968,-9.482 26.192,-9.434 37.722,2.596 39.949,14.529 43.12,31.5 29.288,39.244 13.451,39.41" style="fill:#231f20;fill-opacity:1;fill-rule:nonzero;stroke:none" id="path38"></path>
      </g>
      <g id="g40" transform="translate(401.417,263.3955)">
        <path d="m 0,0 c -9.831,0.775 -15.438,-5.521 -19.059,-11.31 -0.368,3.638 -1.546,6.473 -3.527,8.436 -1.93,1.914 -4.624,2.863 -7.726,2.926 -8.517,0.171 -14.01,-5.312 -18.191,-12.8 0.043,0.291 0.089,0.588 0.129,0.871 0.731,5.303 0.444,7.297 -1.157,9.377 0,0 -1.436,2.088 -5.569,1.918 -1.486,0.054 -3.376,-0.191 -5.764,-1.023 1.362,-1.535 1.356,-4.447 0.091,-13.365 -0.082,-0.583 -5.945,-34.166 -5.945,-34.166 0,0 -0.378,-2.281 1.995,-2.281 l 9.174,0.004 c 0,0 1.201,7.064 1.421,8.213 1.034,4.687 1.825,9.553 4.735,16.387 5.976,14.037 15.324,19.817 18.16,16.597 0.964,-1.095 1.075,-3.803 0.512,-7.566 l -5.497,-31.354 c 0,0 -0.378,-2.281 1.995,-2.281 l 9.161,0.004 1.177,6.84 c 1.955,11.738 4.729,18.385 4.729,18.385 5.279,12.671 12.392,17.994 15.428,16.966 0.737,-0.249 2.045,-0.955 2.587,-3.339 0.309,-1.474 0.327,-3.875 -0.122,-6.562 -0.491,-3.688 -2.825,-13.948 -3.904,-21.646 -0.731,-5.302 -0.444,-7.296 1.156,-9.377 0,0 1.436,-2.087 5.568,-1.917 1.486,-0.054 3.376,0.192 5.764,1.023 -1.36,1.534 -1.524,4.786 -0.13,13.419 0.85,5.258 2.061,10.894 2.061,10.894 1.713,8.334 2.294,15.454 0.49,19.834 C 7.54,-1.545 2.35,-0.186 0,0" style="fill:#231f20;fill-opacity:1;fill-rule:nonzero;stroke:none" id="path42"></path>
      </g>
      <g id="g44" transform="translate(574.1826,263.3857)">
        <path d="m 0,0 c -9.727,0.769 -15.892,-5.346 -20.195,-12.855 0.05,0.331 0.101,0.666 0.147,0.988 0.732,5.303 0.321,7.729 -1.157,9.377 -2.854,3.179 -8.942,1.726 -11.331,0.894 1.36,-1.534 1.356,-4.446 0.089,-13.364 -0.172,-1.209 -0.373,-2.498 -0.594,-3.693 h 0.021 l -5.307,-30.473 c 0,0 -0.378,-2.281 1.995,-2.281 l 9.148,0.004 c 0,0 1.204,7.064 1.421,8.213 1.034,4.687 2.213,9.694 5.064,16.552 5.91,14.219 14.613,18.563 17.301,17.36 1.092,-0.49 1.906,-1.594 2.259,-3.273 0.311,-1.474 0.327,-3.875 -0.122,-6.562 -0.491,-3.688 -2.825,-13.949 -3.904,-21.646 -0.731,-5.303 -0.444,-7.297 1.156,-9.377 0,0 1.436,-2.088 5.568,-1.917 1.486,-0.054 3.376,0.192 5.764,1.023 -1.36,1.534 -1.524,4.786 -0.13,13.419 0.85,5.257 2.061,10.894 2.061,10.894 1.713,8.334 2.332,15.469 0.49,19.834 C 7.492,-1.544 2.101,-0.166 0,0" style="fill:#231f20;fill-opacity:1;fill-rule:nonzero;stroke:none" id="path46"></path>
      </g>
      <g id="g48" transform="translate(293.5205,261.4111)">
        <path d="m 0,0 c -3.421,-0.212 -7.674,-0.575 -7.674,-0.575 l -1.037,-6.021 c -0.326,-1.859 -0.736,-3.886 -1.148,-5.889 -0.85,-3.337 -1.982,-7.031 -3.885,-11.505 -5.979,-14.037 -13.98,-18.119 -16.989,-17.467 -0.989,0.215 -2.045,1.064 -2.574,3.38 -0.308,1.474 -0.326,3.875 0.122,6.562 0.492,3.688 2.828,13.949 3.907,21.646 0.731,5.303 0.444,7.297 -1.157,9.377 0,0 -1.435,2.088 -5.567,1.918 -1.486,0.053 -3.376,-0.192 -5.765,-1.024 1.361,-1.534 1.525,-4.786 0.13,-13.419 -0.851,-5.257 -1.253,-6.399 -2.062,-10.894 -0.92,-5.106 -1.875,-10.582 -1.496,-15.613 0.469,-6.234 4.784,-10.5 10.752,-11.105 9.418,-0.954 15.874,5.369 20.163,12.65 -0.038,-0.261 -0.079,-0.527 -0.116,-0.782 -0.731,-5.302 -0.444,-7.297 1.157,-9.377 0,0 1.435,-2.088 5.567,-1.917 1.486,-0.054 3.376,0.192 5.765,1.023 -1.363,1.534 -1.357,4.446 -0.089,13.364 0.17,1.209 0.373,2.498 0.592,3.693 h -0.021 l 3.353,19.432 1.51,8.574 C 3.831,-1.811 3.103,0.193 0,0" style="fill:#231f20;fill-opacity:1;fill-rule:nonzero;stroke:none" id="path50"></path>
      </g>
      <g id="g52" transform="translate(468.6865,261.4111)">
        <path d="m 0,0 c -3.421,-0.212 -7.674,-0.575 -7.674,-0.575 l -1.037,-6.021 c -0.326,-1.859 -0.736,-3.886 -1.148,-5.889 -0.85,-3.337 -1.982,-7.031 -3.885,-11.505 -5.979,-14.037 -13.98,-18.119 -16.989,-17.467 -0.989,0.215 -2.045,1.064 -2.574,3.38 -0.308,1.474 -0.326,3.875 0.122,6.562 0.492,3.688 2.828,13.949 3.907,21.646 0.731,5.303 0.444,7.297 -1.157,9.377 0,0 -1.435,2.088 -5.567,1.918 -1.486,0.053 -3.376,-0.192 -5.765,-1.024 1.361,-1.534 1.525,-4.786 0.13,-13.419 -0.851,-5.257 -1.253,-6.399 -2.062,-10.894 -0.92,-5.106 -1.875,-10.582 -1.496,-15.613 0.469,-6.234 4.784,-10.5 10.752,-11.105 9.418,-0.954 15.874,5.369 20.163,12.65 -0.038,-0.261 -0.079,-0.527 -0.116,-0.782 -0.731,-5.302 -0.444,-7.297 1.157,-9.377 0,0 1.435,-2.088 5.567,-1.917 1.486,-0.054 3.376,0.192 5.765,1.023 -1.363,1.534 -1.357,4.446 -0.089,13.364 0.17,1.209 0.373,2.498 0.592,3.693 h -0.021 l 3.353,19.432 1.51,8.574 C 3.831,-1.811 3.103,0.193 0,0" style="fill:#231f20;fill-opacity:1;fill-rule:nonzero;stroke:none" id="path54"></path>
      </g>
      <g id="g56" transform="translate(329.5254,294.9834)">
        <path d="m 0,0 c -0.284,0.01 -0.614,-0.019 -1.001,-0.096 l -9.232,-1.912 -12.569,-71.25 c -0.633,-4.069 -0.389,-5.698 0.399,-7.296 0.767,-1.383 1.976,-2.173 3.297,-2.602 1.421,-0.446 2.894,-0.553 4.168,-0.518 2.431,-0.066 4.394,0.467 4.394,0.467 0,0 -1.246,3.908 -0.207,10.071 L 1.454,-3.861 C 1.804,-1.879 2.009,0.005 0,0" style="fill:#231f20;fill-opacity:1;fill-rule:nonzero;stroke:none" id="path58"></path>
      </g>
      <g id="g60" transform="translate(420.9131,317.9365)">
        <path d="m 0,0 c -103.127,0 -195.243,25.217 -257.524,63.928 -0.465,0.281 -0.9,0.593 -1.347,0.939 -0.587,0.463 -0.727,1.291 -0.424,1.975 0.282,0.728 1.007,1.244 1.817,1.084 0.541,-0.121 1.168,-0.311 1.644,-0.471 C -186.804,44.029 -97.353,30.797 0,30.797 c 97.344,0 186.791,13.232 255.842,36.658 0.441,0.16 1.068,0.35 1.653,0.471 0.774,0.16 1.481,-0.356 1.83,-1.084 0.239,-0.684 0.147,-1.512 -0.516,-1.975 -0.388,-0.346 -0.842,-0.658 -1.288,-0.939 C 195.232,25.174 103.113,0 0,0" style="fill:#8cc63f;fill-opacity:1;fill-rule:nonzero;stroke:none" id="path62"></path>
      </g>
    </g>
  </g>
</svg>
