
<svg xmlns="http://www.w3.org/2000/svg" xmlns:xlink="http://www.w3.org/1999/xlink" version="1.1" id="svg72" xml:space="preserve" width="332.39999" height="237.10001" viewBox="0 0 332.39998 237.1"><defs id="defs76"><clipPath clipPathUnits="userSpaceOnUse" id="clipPath88"><path d="M 0,737.01 H 510.24 V 0 H 0 Z" id="path86"></path></clipPath><clipPath clipPathUnits="userSpaceOnUse" id="clipPath100"><path d="m 216.312,116.906 c 0,-9.79 11.626,-19.179 28.469,-22.31 v 0 c 13.415,3.28 34.033,4.026 45.558,10.037 v 0 c 4.969,2.584 8.547,6.459 8.547,12.273 v 0 c 0,12.866 -19.128,23.448 -41.287,23.448 v 0 c -22.159,0 -41.287,-10.582 -41.287,-23.448" id="path98"></path></clipPath><linearGradient x1="0" y1="0" x2="1" y2="0" gradientUnits="userSpaceOnUse" gradientTransform="matrix(64.93605,-37.490845,-37.490845,-64.936035,225.28076,136.12793)" spreadMethod="pad" id="linearGradient124"><stop style="stop-opacity:1;stop-color:#d00016" offset="0" id="stop106"></stop><stop style="stop-opacity:1;stop-color:#d00016" offset="0.0500031" id="stop108"></stop><stop style="stop-opacity:1;stop-color:#d00016" offset="0.12570421" id="stop110"></stop><stop style="stop-opacity:1;stop-color:#e6001a" offset="0.25" id="stop112"></stop><stop style="stop-opacity:1;stop-color:#e6001a" offset="0.3736276" id="stop114"></stop><stop style="stop-opacity:1;stop-color:#e6001a" offset="0.720001" id="stop116"></stop><stop style="stop-opacity:1;stop-color:#e6001a" offset="0.77677544" id="stop118"></stop><stop style="stop-opacity:1;stop-color:#d00016" offset="0.869995" id="stop120"></stop><stop style="stop-opacity:1;stop-color:#d00016" offset="1" id="stop122"></stop></linearGradient><clipPath clipPathUnits="userSpaceOnUse" id="clipPath134"><path d="m 212.538,116.906 c 0,-10.783 10.532,-20.072 25.735,-24.445 v 0 c 1.341,0.596 2.831,1.143 4.521,1.59 v 0 c -16.396,3.627 -27.474,12.966 -27.474,22.855 v 0 c 0,12.618 18.084,24.343 42.279,24.343 v 0 c 24.195,0 42.281,-11.725 42.281,-24.343 v 0 c 0,-21.912 -45.311,-17.937 -61.557,-25.34 v 0 c -6.062,-2.731 -7.702,-7.352 -7.702,-10.68 v 0 c 6.012,7.351 35.225,5.415 54.899,14.605 v 0 c 8.694,4.125 17.141,11.775 17.141,21.415 v 0 c 0,14.903 -20.171,26.976 -45.062,26.976 v 0 c -24.891,0 -45.061,-12.073 -45.061,-26.976" id="path132"></path></clipPath><linearGradient x1="0" y1="0" x2="1" y2="0" gradientUnits="userSpaceOnUse" gradientTransform="matrix(112.37422,-64.879288,-64.879288,-112.37422,211.83496,138.67285)" spreadMethod="pad" id="linearGradient162"><stop style="stop-opacity:1;stop-color:#fdd221" offset="0" id="stop140"></stop><stop style="stop-opacity:1;stop-color:#fdd221" offset="0.142853" id="stop142"></stop><stop style="stop-opacity:1;stop-color:#f7ae00" offset="0.27159623" id="stop144"></stop><stop style="stop-opacity:1;stop-color:#f7ae00" offset="0.350006" id="stop146"></stop><stop style="stop-opacity:1;stop-color:#f7ae00" offset="0.37630732" id="stop148"></stop><stop style="stop-opacity:1;stop-color:#feda60" offset="0.449997" id="stop150"></stop><stop style="stop-opacity:1;stop-color:#ffe46d" offset="0.46641126" id="stop152"></stop><stop style="stop-opacity:1;stop-color:#ffe46d" offset="0.520004" id="stop154"></stop><stop style="stop-opacity:1;stop-color:#fabd00" offset="0.630005" id="stop156"></stop><stop style="stop-opacity:1;stop-color:#fabd00" offset="0.84643815" id="stop158"></stop><stop style="stop-opacity:1;stop-color:#fabd00" offset="1" id="stop160"></stop></linearGradient><clipPath clipPathUnits="userSpaceOnUse" id="clipPath172"><path d="m 212.538,116.906 c 0,-10.783 10.532,-20.072 25.735,-24.445 v 0 c 1.341,0.596 2.831,1.143 4.521,1.59 v 0 c -16.396,3.627 -27.474,12.966 -27.474,22.855 v 0 z" id="path170"></path></clipPath><linearGradient x1="0" y1="0" x2="1" y2="0" gradientUnits="userSpaceOnUse" gradientTransform="matrix(112.1274,-64.736771,-64.736771,-112.12738,201.2002,120.00586)" spreadMethod="pad" id="linearGradient192"><stop style="stop-opacity:1;stop-color:#fdd221" offset="0" id="stop178"></stop><stop style="stop-opacity:1;stop-color:#fdd221" offset="0.164841" id="stop180"></stop><stop style="stop-opacity:1;stop-color:#f8b500" offset="0.21605912" id="stop182"></stop><stop style="stop-opacity:1;stop-color:#f8b500" offset="0.247253" id="stop184"></stop><stop style="stop-opacity:1;stop-color:#ee7600" offset="0.36264" id="stop186"></stop><stop style="stop-opacity:1;stop-color:#ee7600" offset="0.53028918" id="stop188"></stop><stop style="stop-opacity:1;stop-color:#ee7600" offset="1" id="stop190"></stop></linearGradient><clipPath clipPathUnits="userSpaceOnUse" id="clipPath202"><path d="M 0,737.01 H 510.24 V 0 H 0 Z" id="path200"></path></clipPath><clipPath clipPathUnits="userSpaceOnUse" id="clipPath238"><path d="m 171.888,450.056 c 0,-18.595 22.089,-36.437 54.087,-42.382 v 0 c 25.486,6.23 64.66,7.645 86.558,19.066 v 0 c 9.439,4.909 16.234,12.272 16.234,23.316 v 0 c 0,24.446 -36.34,44.552 -78.438,44.552 v 0 c -42.099,0 -78.441,-20.106 -78.441,-44.552" id="path236"></path></clipPath><linearGradient x1="0" y1="0" x2="1" y2="0" gradientUnits="userSpaceOnUse" gradientTransform="matrix(123.40947,-71.250488,-71.250488,-123.40945,188.98633,486.59863)" spreadMethod="pad" id="linearGradient262"><stop style="stop-opacity:1;stop-color:#d00016" offset="0" id="stop244"></stop><stop style="stop-opacity:1;stop-color:#d00016" offset="0.0500031" id="stop246"></stop><stop style="stop-opacity:1;stop-color:#d00016" offset="0.12570421" id="stop248"></stop><stop style="stop-opacity:1;stop-color:#e6001a" offset="0.25" id="stop250"></stop><stop style="stop-opacity:1;stop-color:#e6001a" offset="0.3736276" id="stop252"></stop><stop style="stop-opacity:1;stop-color:#e6001a" offset="0.720001" id="stop254"></stop><stop style="stop-opacity:1;stop-color:#e6001a" offset="0.77677544" id="stop256"></stop><stop style="stop-opacity:1;stop-color:#d00016" offset="0.869995" id="stop258"></stop><stop style="stop-opacity:1;stop-color:#d00016" offset="1" id="stop260"></stop></linearGradient><clipPath clipPathUnits="userSpaceOnUse" id="clipPath272"><path d="m 164.714,450.056 c 0,-20.482 20.011,-38.134 48.897,-46.442 v 0 c 2.547,1.132 5.381,2.171 8.589,3.02 v 0 c -31.149,6.893 -52.199,24.636 -52.199,43.422 v 0 c 0,23.978 34.358,46.252 80.328,46.252 v 0 c 45.968,0 80.327,-22.274 80.327,-46.252 v 0 c 0,-41.627 -86.086,-34.077 -116.952,-48.14 v 0 c -11.515,-5.192 -14.629,-13.971 -14.629,-20.295 v 0 c 11.42,13.969 66.923,10.289 104.301,27.752 v 0 c 16.521,7.836 32.565,22.371 32.565,40.683 v 0 c 0,28.317 -38.322,51.255 -85.612,51.255 v 0 c -47.291,0 -85.615,-22.938 -85.615,-51.255" id="path270"></path></clipPath><linearGradient x1="0" y1="0" x2="1" y2="0" gradientUnits="userSpaceOnUse" gradientTransform="matrix(213.3987,-123.2058,-123.2058,-213.3987,163.43066,491.82373)" spreadMethod="pad" id="linearGradient300"><stop style="stop-opacity:1;stop-color:#fdd221" offset="0" id="stop278"></stop><stop style="stop-opacity:1;stop-color:#fdd221" offset="0.142853" id="stop280"></stop><stop style="stop-opacity:1;stop-color:#f7ae00" offset="0.27159623" id="stop282"></stop><stop style="stop-opacity:1;stop-color:#f7ae00" offset="0.350006" id="stop284"></stop><stop style="stop-opacity:1;stop-color:#f7ae00" offset="0.37630732" id="stop286"></stop><stop style="stop-opacity:1;stop-color:#feda60" offset="0.449997" id="stop288"></stop><stop style="stop-opacity:1;stop-color:#ffe46d" offset="0.46641126" id="stop290"></stop><stop style="stop-opacity:1;stop-color:#ffe46d" offset="0.520004" id="stop292"></stop><stop style="stop-opacity:1;stop-color:#fabd00" offset="0.630005" id="stop294"></stop><stop style="stop-opacity:1;stop-color:#fabd00" offset="0.84643815" id="stop296"></stop><stop style="stop-opacity:1;stop-color:#fabd00" offset="1" id="stop298"></stop></linearGradient><clipPath clipPathUnits="userSpaceOnUse" id="clipPath310"><path d="m 164.715,450.056 -0.001,-10e-4 c 0,-20.482 20.011,-38.133 48.897,-46.441 v 0 c 2.547,1.132 5.381,2.171 8.589,3.02 v 0 c -31.149,6.893 -52.199,24.636 -52.199,43.422 v 0 z" id="path308"></path></clipPath><linearGradient x1="0" y1="0" x2="1" y2="0" gradientUnits="userSpaceOnUse" gradientTransform="matrix(213.3965,-123.20453,-123.20453,-213.3965,142.90283,456.104)" spreadMethod="pad" id="linearGradient330"><stop style="stop-opacity:1;stop-color:#fdd221" offset="0" id="stop316"></stop><stop style="stop-opacity:1;stop-color:#fdd221" offset="0.164841" id="stop318"></stop><stop style="stop-opacity:1;stop-color:#f8b500" offset="0.21605912" id="stop320"></stop><stop style="stop-opacity:1;stop-color:#f8b500" offset="0.247253" id="stop322"></stop><stop style="stop-opacity:1;stop-color:#ee7600" offset="0.36264" id="stop324"></stop><stop style="stop-opacity:1;stop-color:#ee7600" offset="0.53028918" id="stop326"></stop><stop style="stop-opacity:1;stop-color:#ee7600" offset="1" id="stop328"></stop></linearGradient><clipPath clipPathUnits="userSpaceOnUse" id="clipPath340"><path d="M 0,737.01 H 510.24 V 0 H 0 Z" id="path338"></path></clipPath><clipPath clipPathUnits="userSpaceOnUse" id="clipPath38"><path d="m 216.312,116.906 c 0,-9.79 11.626,-19.179 28.469,-22.31 v 0 c 13.415,3.28 34.033,4.026 45.558,10.037 v 0 c 4.969,2.584 8.547,6.459 8.547,12.273 v 0 c 0,12.866 -19.128,23.448 -41.287,23.448 v 0 c -22.159,0 -41.287,-10.582 -41.287,-23.448" id="path36"></path></clipPath><clipPath clipPathUnits="userSpaceOnUse" id="clipPath72"><path d="m 212.538,116.906 c 0,-10.783 10.532,-20.072 25.735,-24.445 v 0 c 1.341,0.596 2.831,1.143 4.521,1.59 v 0 c -16.396,3.627 -27.474,12.966 -27.474,22.855 v 0 c 0,12.618 18.084,24.343 42.279,24.343 v 0 c 24.195,0 42.281,-11.725 42.281,-24.343 v 0 c 0,-21.912 -45.311,-17.937 -61.557,-25.34 v 0 c -6.062,-2.731 -7.702,-7.352 -7.702,-10.68 v 0 c 6.012,7.351 35.225,5.415 54.899,14.605 v 0 c 8.694,4.125 17.141,11.775 17.141,21.415 v 0 c 0,14.903 -20.171,26.976 -45.062,26.976 v 0 c -24.891,0 -45.061,-12.073 -45.061,-26.976" id="path70"></path></clipPath><clipPath clipPathUnits="userSpaceOnUse" id="clipPath110"><path d="m 212.538,116.906 c 0,-10.783 10.532,-20.072 25.735,-24.445 v 0 c 1.341,0.596 2.831,1.143 4.521,1.59 v 0 c -16.396,3.627 -27.474,12.966 -27.474,22.855 v 0 z" id="path108"></path></clipPath><clipPath clipPathUnits="userSpaceOnUse" id="clipPath140"><path d="M 0,737.01 H 510.24 V 0 H 0 Z" id="path138"></path></clipPath><clipPath clipPathUnits="userSpaceOnUse" id="clipPath176"><path d="m 171.888,450.056 c 0,-18.595 22.089,-36.437 54.087,-42.382 v 0 c 25.486,6.23 64.66,7.645 86.558,19.066 v 0 c 9.439,4.909 16.234,12.272 16.234,23.316 v 0 c 0,24.446 -36.34,44.552 -78.438,44.552 v 0 c -42.099,0 -78.441,-20.106 -78.441,-44.552" id="path174"></path></clipPath><linearGradient xlink:href="#linearGradient262" id="linearGradient522" gradientUnits="userSpaceOnUse" gradientTransform="matrix(123.40947,-71.250488,-71.250488,-123.40945,188.98633,486.59863)" x1="0" y1="0" x2="1" y2="0" spreadMethod="pad"></linearGradient><linearGradient xlink:href="#linearGradient300" id="linearGradient524" gradientUnits="userSpaceOnUse" gradientTransform="matrix(213.3987,-123.2058,-123.2058,-213.3987,163.43066,491.82373)" x1="0" y1="0" x2="1" y2="0" spreadMethod="pad"></linearGradient><clipPath clipPathUnits="userSpaceOnUse" id="clipPath38-1"><path d="m 216.312,116.906 c 0,-9.79 11.626,-19.179 28.469,-22.31 v 0 c 13.415,3.28 34.033,4.026 45.558,10.037 v 0 c 4.969,2.584 8.547,6.459 8.547,12.273 v 0 c 0,12.866 -19.128,23.448 -41.287,23.448 v 0 c -22.159,0 -41.287,-10.582 -41.287,-23.448" id="path36-8"></path></clipPath><clipPath clipPathUnits="userSpaceOnUse" id="clipPath72-6"><path d="m 212.538,116.906 c 0,-10.783 10.532,-20.072 25.735,-24.445 v 0 c 1.341,0.596 2.831,1.143 4.521,1.59 v 0 c -16.396,3.627 -27.474,12.966 -27.474,22.855 v 0 c 0,12.618 18.084,24.343 42.279,24.343 v 0 c 24.195,0 42.281,-11.725 42.281,-24.343 v 0 c 0,-21.912 -45.311,-17.937 -61.557,-25.34 v 0 c -6.062,-2.731 -7.702,-7.352 -7.702,-10.68 v 0 c 6.012,7.351 35.225,5.415 54.899,14.605 v 0 c 8.694,4.125 17.141,11.775 17.141,21.415 v 0 c 0,14.903 -20.171,26.976 -45.062,26.976 v 0 c -24.891,0 -45.061,-12.073 -45.061,-26.976" id="path70-0"></path></clipPath><clipPath clipPathUnits="userSpaceOnUse" id="clipPath110-1"><path d="m 212.538,116.906 c 0,-10.783 10.532,-20.072 25.735,-24.445 v 0 c 1.341,0.596 2.831,1.143 4.521,1.59 v 0 c -16.396,3.627 -27.474,12.966 -27.474,22.855 v 0 z" id="path108-4"></path></clipPath><clipPath clipPathUnits="userSpaceOnUse" id="clipPath140-1"><path d="M 0,737.01 H 510.24 V 0 H 0 Z" id="path138-9"></path></clipPath><clipPath clipPathUnits="userSpaceOnUse" id="clipPath176-7"><path d="m 171.888,450.056 c 0,-18.595 22.089,-36.437 54.087,-42.382 v 0 c 25.486,6.23 64.66,7.645 86.558,19.066 v 0 c 9.439,4.909 16.234,12.272 16.234,23.316 v 0 c 0,24.446 -36.34,44.552 -78.438,44.552 v 0 c -42.099,0 -78.441,-20.106 -78.441,-44.552" id="path174-7"></path></clipPath></defs><g id="g80" transform="matrix(1.3333333,0,0,-1.3333333,0,982.68)"><g id="g196" transform="matrix(1.4270158,0,0,1.4270158,-232.62585,19.205786)"><g id="g198" clip-path="url(#clipPath202)"><g id="g204" transform="translate(267.2334,122.8701)"></g><g id="g208" transform="translate(267.002,127.8252)"></g><g id="g212" transform="translate(249.8779,113.209)"></g><g id="g216" transform="translate(262.1445,123.0078)"></g><g id="g220" transform="translate(238.6982,127.2021)"></g><g id="g224" transform="translate(274.0234,121.8408)"></g><g id="g228" transform="translate(163.0156,450.0547)"><path d="m 0,0 c 0,-25.58 27.186,-41.061 48.141,-47.479 -9.536,-4.908 -14.349,-12.931 -13.594,-23.409 0.096,-0.849 0.945,-0.944 1.417,-0.282 2.17,2.83 4.624,4.625 7.834,6.041 8.212,3.586 20.955,5.474 35.492,7.645 20.106,3.021 43.043,6.513 61.731,15.292 16.804,7.928 33.605,22.938 33.605,42.192 0,33.039 -44.554,52.956 -87.313,52.956 C 44.553,52.956 0,33.039 0,0" style="fill:#ffffff;fill-opacity:1;fill-rule:nonzero;stroke:none" id="path230"></path></g></g></g><g id="g232" transform="matrix(1.4270158,0,0,1.4270158,-232.62585,19.205786)"><g id="g234" clip-path="url(#clipPath238)"><g id="g240"><g id="g242"><path d="m 171.888,450.056 c 0,-18.595 22.089,-36.437 54.087,-42.382 v 0 c 25.486,6.23 64.66,7.645 86.558,19.066 v 0 c 9.439,4.909 16.234,12.272 16.234,23.316 v 0 c 0,24.446 -36.34,44.552 -78.438,44.552 v 0 c -42.099,0 -78.441,-20.106 -78.441,-44.552" style="fill:url(#linearGradient522);stroke:none" id="path264"></path></g></g></g></g><g id="g266" transform="matrix(1.4270158,0,0,1.4270158,-232.62585,19.205786)"><g id="g268" clip-path="url(#clipPath272)"><g id="g274"><g id="g276"><path d="m 164.714,450.056 c 0,-20.482 20.011,-38.134 48.897,-46.442 v 0 c 2.547,1.132 5.381,2.171 8.589,3.02 v 0 c -31.149,6.893 -52.199,24.636 -52.199,43.422 v 0 c 0,23.978 34.358,46.252 80.328,46.252 v 0 c 45.968,0 80.327,-22.274 80.327,-46.252 v 0 c 0,-41.627 -86.086,-34.077 -116.952,-48.14 v 0 c -11.515,-5.192 -14.629,-13.971 -14.629,-20.295 v 0 c 11.42,13.969 66.923,10.289 104.301,27.752 v 0 c 16.521,7.836 32.565,22.371 32.565,40.683 v 0 c 0,28.317 -38.322,51.255 -85.612,51.255 v 0 c -47.291,0 -85.615,-22.938 -85.615,-51.255" style="fill:url(#linearGradient524);stroke:none" id="path302"></path></g></g></g></g><g id="g304" transform="matrix(1.4270158,0,0,1.4270158,-232.62585,19.205786)"><g id="g306" clip-path="url(#clipPath310)"><g id="g312"><g id="g314"><path d="m 164.715,450.056 -0.001,-10e-4 c 0,-20.482 20.011,-38.133 48.897,-46.441 v 0 c 2.547,1.132 5.381,2.171 8.589,3.02 v 0 c -31.149,6.893 -52.199,24.636 -52.199,43.422 v 0 z" style="fill:url(#linearGradient330);stroke:none" id="path332"></path></g></g></g></g><g id="g334" transform="matrix(1.4270158,0,0,1.4270158,-232.62585,19.205786)"><g id="g336" clip-path="url(#clipPath340)"><g id="g342" transform="translate(213.5879,445.8057)"><path d="m 0,0 c -3.711,0 -6.689,3.033 -6.689,6.627 0,3.713 2.978,6.69 6.689,6.69 3.707,0 6.74,-2.81 6.74,-6.632 C 6.74,3.089 3.707,0 0,0 M 14.271,22.571 H 4.83 c -0.844,0 -1.123,0.392 -1.123,1.121 v 4.948 c 0,1.123 -0.732,2.302 -2.699,2.302 h -2.024 c -1.908,0 -2.64,-1.179 -2.64,-2.302 v -4.948 c 0,-0.729 -0.28,-1.121 -1.121,-1.121 h -9.44 c -1.125,0 -2.246,-0.618 -2.246,-2.362 v -1.571 c 0,-1.742 1.121,-2.362 2.246,-2.362 h 4.838 c -2.867,-2.379 -4.672,-5.828 -4.672,-9.649 0,-7.078 6.293,-12.923 14.051,-12.923 7.752,0 14.101,6.016 14.101,13.036 0,3.833 -1.775,7.206 -4.591,9.536 h 4.761 c 1.124,0 2.247,0.62 2.247,2.362 v 1.571 c 0,1.744 -1.123,2.362 -2.247,2.362" style="fill:#ffffff;fill-opacity:1;fill-rule:nonzero;stroke:none" id="path344"></path></g><g id="g346" transform="translate(248.085,459.042)"><path d="m 0,0 h -6.293 c -0.728,0 -1.126,0.282 -1.126,1.126 v 12.93 c 0,1.123 -0.728,2.3 -2.693,2.3 h -2.03 c -1.905,0 -2.636,-1.177 -2.636,-2.3 v -45.009 c 0,-1.125 0.731,-2.306 2.636,-2.306 h 2.03 c 1.965,0 2.693,1.181 2.693,2.306 V -7.64 c 0,0.841 0.398,1.123 1.126,1.123 H 0 c 1.121,0 2.244,0.731 2.244,2.473 v 1.572 C 2.244,-0.729 1.121,0 0,0" style="fill:#ffffff;fill-opacity:1;fill-rule:nonzero;stroke:none" id="path348"></path></g><g id="g350" transform="translate(287.4707,432.584)"><path d="m 0,0 c 0,-0.845 -0.395,-1.123 -1.123,-1.123 h -17.686 c -0.729,0 -1.121,0.278 -1.121,1.123 v 4.117 c 0,0.844 0.392,1.123 1.121,1.123 H -1.123 C -0.395,5.24 0,4.961 0,4.117 Z m 5.115,11.535 h -30.16 c -1.46,0 -2.251,-0.731 -2.251,-2.246 v -10.83 c 0,-3.686 2.905,-5.82 7.06,-5.82 H 0.301 c 4.162,0 7.058,2.134 7.058,5.82 v 10.83 c 0,1.515 -0.786,2.246 -2.244,2.246" style="fill:#ffffff;fill-opacity:1;fill-rule:nonzero;stroke:none" id="path352"></path></g><g id="g354" transform="translate(292.1357,475.7979)"><path d="m 0,0 h -2.026 c -1.911,0 -2.639,-1.181 -2.639,-2.303 v -18.116 c -2.466,-1.141 -4.846,-1.655 -11.381,-1.655 h -14.971 c -0.733,0 -1.121,0.28 -1.121,1.124 v 2.015 c 0,0.843 0.388,1.123 1.121,1.123 h 15.899 c 1.462,0 2.251,0.73 2.251,2.25 v 11.566 c 0,1.518 -0.789,2.251 -2.251,2.251 h -22.25 c -1.124,0 -2.245,-0.622 -2.245,-2.363 v -1.405 c 0,-1.74 1.121,-2.36 2.245,-2.36 h 16.07 c 0.735,0 1.127,-0.278 1.127,-1.122 v -1.626 c 0,-0.842 -0.392,-1.121 -1.127,-1.121 h -15.896 c -1.463,0 -2.254,-0.732 -2.254,-2.25 v -8.255 c 0,-3.686 2.327,-5.955 7.192,-5.955 h 16.159 c 6.641,0 9.201,0.78 11.432,1.974 v -1.18 c 0,-1.125 0.728,-2.304 2.639,-2.304 H 0 c 1.966,0 2.694,1.179 2.694,2.304 V -2.303 C 2.694,-1.181 1.966,0 0,0" style="fill:#ffffff;fill-opacity:1;fill-rule:nonzero;stroke:none" id="path356"></path></g></g></g></g></svg>